<?xml version="1.0" encoding="utf-8" standalone="no"?>
<!DOCTYPE svg PUBLIC "-//W3C//DTD SVG 1.1//EN"
  "http://www.w3.org/Graphics/SVG/1.1/DTD/svg11.dtd">
<svg height="601.898375pt" version="1.1" viewBox="0 0 1005.689875 601.898375" width="1005.689875pt" xmlns="http://www.w3.org/2000/svg" xmlns:xlink="http://www.w3.org/1999/xlink">
 <metadata>
  <rdf:RDF xmlns:cc="http://creativecommons.org/ns#" xmlns:dc="http://purl.org/dc/elements/1.1/" xmlns:rdf="http://www.w3.org/1999/02/22-rdf-syntax-ns#">
   <cc:Work>
    <dc:type rdf:resource="http://purl.org/dc/dcmitype/StillImage"/>
    <dc:date>2022-10-05T14:25:35.543708</dc:date>
    <dc:format>image/svg+xml</dc:format>
    <dc:creator>
     <cc:Agent>
      <dc:title>Matplotlib v3.4.3, https://matplotlib.org/</dc:title>
     </cc:Agent>
    </dc:creator>
   </cc:Work>
  </rdf:RDF>
 </metadata>
 <defs>
  <style type="text/css">*{stroke-linecap:butt;stroke-linejoin:round;}</style>
 </defs>
 <g id="figure_1">
  <g id="patch_1">
   <path d="M 0 601.898375 
L 1005.689875 601.898375 
L 1005.689875 0 
L 0 0 
z
" style="fill:none;"/>
  </g>
  <g id="axes_1">
   <g id="patch_2">
    <path d="M 78.5875 548.485875 
L 971.3875 548.485875 
L 971.3875 113.605875 
L 78.5875 113.605875 
z
" style="fill:none;"/>
   </g>
   <g id="PolyCollection_1">
    <defs>
     <path d="M 119.169318 -239.837288 
L 119.169318 -226.929199 
L 192.954442 -295.75645 
L 266.739566 -286.660034 
L 340.52469 -336.40905 
L 414.309814 -329.428966 
L 488.094938 -329.964179 
L 561.880062 -368.122767 
L 635.665186 -366.274315 
L 709.45031 -351.362152 
L 783.235434 -386.929701 
L 857.020558 -375.14738 
L 930.805682 -407.079895 
L 930.805682 -411.536688 
L 930.805682 -411.536688 
L 857.020558 -382.085954 
L 783.235434 -393.488373 
L 709.45031 -364.071228 
L 635.665186 -370.216557 
L 561.880062 -371.822227 
L 488.094938 -345.859463 
L 414.309814 -334.9004 
L 340.52469 -342.543847 
L 266.739566 -293.745226 
L 192.954442 -303.777192 
L 119.169318 -239.837288 
z
" id="m65b9319aa0" style="stroke:#6495ed;stroke-opacity:0.2;"/>
    </defs>
    <g clip-path="url(#pb4e2ab4481)">
     <use style="fill:#6495ed;fill-opacity:0.2;stroke:#6495ed;stroke-opacity:0.2;" x="0" xlink:href="#m65b9319aa0" y="601.898375"/>
    </g>
   </g>
   <g id="PolyCollection_2">
    <defs>
     <path d="M 119.169318 -220.429019 
L 119.169318 -206.96437 
L 192.954442 -317.283658 
L 266.739566 -313.701819 
L 340.52469 -354.51805 
L 414.309814 -364.097259 
L 488.094938 -360.356437 
L 561.880062 -401.840394 
L 635.665186 -405.970872 
L 709.45031 -397.27836 
L 783.235434 -425.500988 
L 857.020558 -390.589104 
L 930.805682 -424.404772 
L 930.805682 -436.6641 
L 930.805682 -436.6641 
L 857.020558 -403.086432 
L 783.235434 -430.483668 
L 709.45031 -408.699129 
L 635.665186 -411.021748 
L 561.880062 -406.511899 
L 488.094938 -375.771174 
L 414.309814 -369.8874 
L 340.52469 -360.447511 
L 266.739566 -320.649358 
L 192.954442 -325.95007 
L 119.169318 -220.429019 
z
" id="m656008fd00" style="stroke:#800080;stroke-opacity:0.2;"/>
    </defs>
    <g clip-path="url(#pb4e2ab4481)">
     <use style="fill:#800080;fill-opacity:0.2;stroke:#800080;stroke-opacity:0.2;" x="0" xlink:href="#m656008fd00" y="601.898375"/>
    </g>
   </g>
   <g id="PolyCollection_3">
    <defs>
     <path d="M 119.169318 -238.414675 
L 119.169318 -221.170219 
L 192.954442 -309.091322 
L 266.739566 -326.130161 
L 340.52469 -368.534431 
L 414.309814 -386.785185 
L 488.094938 -381.016697 
L 561.880062 -411.992364 
L 635.665186 -420.664841 
L 709.45031 -393.424399 
L 783.235434 -419.117141 
L 857.020558 -360.245527 
L 930.805682 -437.673127 
L 930.805682 -445.433907 
L 930.805682 -445.433907 
L 857.020558 -399.06189 
L 783.235434 -431.440028 
L 709.45031 -411.261516 
L 635.665186 -425.583133 
L 561.880062 -420.437306 
L 488.094938 -396.435582 
L 414.309814 -391.647236 
L 340.52469 -374.866175 
L 266.739566 -332.967324 
L 192.954442 -320.301505 
L 119.169318 -238.414675 
z
" id="m3155d0d66c" style="stroke:#0000ff;stroke-opacity:0.2;"/>
    </defs>
    <g clip-path="url(#pb4e2ab4481)">
     <use style="fill:#0000ff;fill-opacity:0.2;stroke:#0000ff;stroke-opacity:0.2;" x="0" xlink:href="#m3155d0d66c" y="601.898375"/>
    </g>
   </g>
   <g id="PolyCollection_4"/>
   <g id="PolyCollection_5"/>
   <g id="PolyCollection_6"/>
   <g id="PolyCollection_7">
    <defs>
     <path d="M 119.169318 -223.335172 
L 119.169318 -201.203548 
L 192.954442 -231.793889 
L 266.739566 -246.758315 
L 340.52469 -300.061496 
L 414.309814 -306.617282 
L 488.094938 -324.79021 
L 561.880062 -353.673169 
L 635.665186 -352.068017 
L 709.45031 -350.504956 
L 783.235434 -370.29929 
L 857.020558 -346.881439 
L 930.805682 -413.457343 
L 930.805682 -422.698555 
L 930.805682 -422.698555 
L 857.020558 -369.55347 
L 783.235434 -378.998474 
L 709.45031 -356.862721 
L 635.665186 -360.878272 
L 561.880062 -358.952982 
L 488.094938 -328.097842 
L 414.309814 -314.536057 
L 340.52469 -309.907618 
L 266.739566 -258.861725 
L 192.954442 -250.116259 
L 119.169318 -223.335172 
z
" id="m225d86da02" style="stroke:#00ff00;stroke-opacity:0.2;"/>
    </defs>
    <g clip-path="url(#pb4e2ab4481)">
     <use style="fill:#00ff00;fill-opacity:0.2;stroke:#00ff00;stroke-opacity:0.2;" x="0" xlink:href="#m225d86da02" y="601.898375"/>
    </g>
   </g>
   <g id="PolyCollection_8">
    <defs>
     <path d="M 119.169318 -214.065609 
L 119.169318 -189.598614 
L 192.954442 -260.406498 
L 266.739566 -288.733917 
L 340.52469 -350.736561 
L 414.309814 -367.68341 
L 488.094938 -351.859891 
L 561.880062 -398.813265 
L 635.665186 -411.063218 
L 709.45031 -377.219968 
L 783.235434 -420.797018 
L 857.020558 -390.593305 
L 930.805682 -425.545291 
L 930.805682 -446.008593 
L 930.805682 -446.008593 
L 857.020558 -417.287608 
L 783.235434 -426.309829 
L 709.45031 -397.260207 
L 635.665186 -415.149779 
L 561.880062 -413.499021 
L 488.094938 -366.519413 
L 414.309814 -377.109314 
L 340.52469 -362.047757 
L 266.739566 -301.765252 
L 192.954442 -273.203398 
L 119.169318 -214.065609 
z
" id="mfbb8621ce4" style="stroke:#000000;stroke-opacity:0.2;"/>
    </defs>
    <g clip-path="url(#pb4e2ab4481)">
     <use style="fill-opacity:0.2;stroke:#000000;stroke-opacity:0.2;" x="0" xlink:href="#mfbb8621ce4" y="601.898375"/>
    </g>
   </g>
   <g id="PolyCollection_9">
    <defs>
     <path d="M 119.169318 -232.380942 
L 119.169318 -214.755857 
L 192.954442 -296.720857 
L 266.739566 -341.265756 
L 340.52469 -393.94832 
L 414.309814 -401.92569 
L 488.094938 -382.834165 
L 561.880062 -422.437437 
L 635.665186 -439.492361 
L 709.45031 -428.923781 
L 783.235434 -441.524899 
L 857.020558 -428.983584 
L 930.805682 -462.12543 
L 930.805682 -468.525227 
L 930.805682 -468.525227 
L 857.020558 -449.711888 
L 783.235434 -445.917146 
L 709.45031 -438.6801 
L 635.665186 -443.960407 
L 561.880062 -433.87954 
L 488.094938 -416.716846 
L 414.309814 -416.122789 
L 340.52469 -398.973042 
L 266.739566 -347.280847 
L 192.954442 -317.095168 
L 119.169318 -232.380942 
z
" id="m8e7da8d669" style="stroke:#008000;stroke-opacity:0.2;"/>
    </defs>
    <g clip-path="url(#pb4e2ab4481)">
     <use style="fill:#008000;fill-opacity:0.2;stroke:#008000;stroke-opacity:0.2;" x="0" xlink:href="#m8e7da8d669" y="601.898375"/>
    </g>
   </g>
   <g id="matplotlib.axis_1">
    <g id="xtick_1">
     <g id="line2d_1">
      <path clip-path="url(#pb4e2ab4481)" d="M 119.169318 548.485875 
L 119.169318 113.605875 
" style="fill:none;stroke:#b0b0b0;stroke-dasharray:3.7,1.6;stroke-dashoffset:0;"/>
     </g>
     <g id="line2d_2">
      <defs>
       <path d="M 0 0 
L 0 -5 
" id="m3d3ae3f36a" style="stroke:#000000;stroke-width:0.8;"/>
      </defs>
      <g>
       <use style="stroke:#000000;stroke-width:0.8;" x="119.169318" xlink:href="#m3d3ae3f36a" y="548.485875"/>
      </g>
     </g>
     <g id="text_1">
      <!-- Jan -->
      <g transform="translate(103.753693 567.18275)scale(0.2 -0.2)">
       <defs>
        <path d="M 628 4666 
L 1259 4666 
L 1259 325 
Q 1259 -519 939 -900 
Q 619 -1281 -91 -1281 
L -331 -1281 
L -331 -750 
L -134 -750 
Q 284 -750 456 -515 
Q 628 -281 628 325 
L 628 4666 
z
" id="DejaVuSans-4a" transform="scale(0.015625)"/>
        <path d="M 2194 1759 
Q 1497 1759 1228 1600 
Q 959 1441 959 1056 
Q 959 750 1161 570 
Q 1363 391 1709 391 
Q 2188 391 2477 730 
Q 2766 1069 2766 1631 
L 2766 1759 
L 2194 1759 
z
M 3341 1997 
L 3341 0 
L 2766 0 
L 2766 531 
Q 2569 213 2275 61 
Q 1981 -91 1556 -91 
Q 1019 -91 701 211 
Q 384 513 384 1019 
Q 384 1609 779 1909 
Q 1175 2209 1959 2209 
L 2766 2209 
L 2766 2266 
Q 2766 2663 2505 2880 
Q 2244 3097 1772 3097 
Q 1472 3097 1187 3025 
Q 903 2953 641 2809 
L 641 3341 
Q 956 3463 1253 3523 
Q 1550 3584 1831 3584 
Q 2591 3584 2966 3190 
Q 3341 2797 3341 1997 
z
" id="DejaVuSans-61" transform="scale(0.015625)"/>
        <path d="M 3513 2113 
L 3513 0 
L 2938 0 
L 2938 2094 
Q 2938 2591 2744 2837 
Q 2550 3084 2163 3084 
Q 1697 3084 1428 2787 
Q 1159 2491 1159 1978 
L 1159 0 
L 581 0 
L 581 3500 
L 1159 3500 
L 1159 2956 
Q 1366 3272 1645 3428 
Q 1925 3584 2291 3584 
Q 2894 3584 3203 3211 
Q 3513 2838 3513 2113 
z
" id="DejaVuSans-6e" transform="scale(0.015625)"/>
       </defs>
       <use xlink:href="#DejaVuSans-4a"/>
       <use x="29.492188" xlink:href="#DejaVuSans-61"/>
       <use x="90.771484" xlink:href="#DejaVuSans-6e"/>
      </g>
     </g>
    </g>
    <g id="xtick_2">
     <g id="line2d_3">
      <path clip-path="url(#pb4e2ab4481)" d="M 192.954442 548.485875 
L 192.954442 113.605875 
" style="fill:none;stroke:#b0b0b0;stroke-dasharray:3.7,1.6;stroke-dashoffset:0;"/>
     </g>
     <g id="line2d_4">
      <g>
       <use style="stroke:#000000;stroke-width:0.8;" x="192.954442" xlink:href="#m3d3ae3f36a" y="548.485875"/>
      </g>
     </g>
     <g id="text_2">
      <!-- Feb -->
      <g transform="translate(175.251317 567.18275)scale(0.2 -0.2)">
       <defs>
        <path d="M 628 4666 
L 3309 4666 
L 3309 4134 
L 1259 4134 
L 1259 2759 
L 3109 2759 
L 3109 2228 
L 1259 2228 
L 1259 0 
L 628 0 
L 628 4666 
z
" id="DejaVuSans-46" transform="scale(0.015625)"/>
        <path d="M 3597 1894 
L 3597 1613 
L 953 1613 
Q 991 1019 1311 708 
Q 1631 397 2203 397 
Q 2534 397 2845 478 
Q 3156 559 3463 722 
L 3463 178 
Q 3153 47 2828 -22 
Q 2503 -91 2169 -91 
Q 1331 -91 842 396 
Q 353 884 353 1716 
Q 353 2575 817 3079 
Q 1281 3584 2069 3584 
Q 2775 3584 3186 3129 
Q 3597 2675 3597 1894 
z
M 3022 2063 
Q 3016 2534 2758 2815 
Q 2500 3097 2075 3097 
Q 1594 3097 1305 2825 
Q 1016 2553 972 2059 
L 3022 2063 
z
" id="DejaVuSans-65" transform="scale(0.015625)"/>
        <path d="M 3116 1747 
Q 3116 2381 2855 2742 
Q 2594 3103 2138 3103 
Q 1681 3103 1420 2742 
Q 1159 2381 1159 1747 
Q 1159 1113 1420 752 
Q 1681 391 2138 391 
Q 2594 391 2855 752 
Q 3116 1113 3116 1747 
z
M 1159 2969 
Q 1341 3281 1617 3432 
Q 1894 3584 2278 3584 
Q 2916 3584 3314 3078 
Q 3713 2572 3713 1747 
Q 3713 922 3314 415 
Q 2916 -91 2278 -91 
Q 1894 -91 1617 61 
Q 1341 213 1159 525 
L 1159 0 
L 581 0 
L 581 4863 
L 1159 4863 
L 1159 2969 
z
" id="DejaVuSans-62" transform="scale(0.015625)"/>
       </defs>
       <use xlink:href="#DejaVuSans-46"/>
       <use x="52.019531" xlink:href="#DejaVuSans-65"/>
       <use x="113.542969" xlink:href="#DejaVuSans-62"/>
      </g>
     </g>
    </g>
    <g id="xtick_3">
     <g id="line2d_5">
      <path clip-path="url(#pb4e2ab4481)" d="M 266.739566 548.485875 
L 266.739566 113.605875 
" style="fill:none;stroke:#b0b0b0;stroke-dasharray:3.7,1.6;stroke-dashoffset:0;"/>
     </g>
     <g id="line2d_6">
      <g>
       <use style="stroke:#000000;stroke-width:0.8;" x="266.739566" xlink:href="#m3d3ae3f36a" y="548.485875"/>
      </g>
     </g>
     <g id="text_3">
      <!-- Mar -->
      <g transform="translate(247.872379 567.18275)scale(0.2 -0.2)">
       <defs>
        <path d="M 628 4666 
L 1569 4666 
L 2759 1491 
L 3956 4666 
L 4897 4666 
L 4897 0 
L 4281 0 
L 4281 4097 
L 3078 897 
L 2444 897 
L 1241 4097 
L 1241 0 
L 628 0 
L 628 4666 
z
" id="DejaVuSans-4d" transform="scale(0.015625)"/>
        <path d="M 2631 2963 
Q 2534 3019 2420 3045 
Q 2306 3072 2169 3072 
Q 1681 3072 1420 2755 
Q 1159 2438 1159 1844 
L 1159 0 
L 581 0 
L 581 3500 
L 1159 3500 
L 1159 2956 
Q 1341 3275 1631 3429 
Q 1922 3584 2338 3584 
Q 2397 3584 2469 3576 
Q 2541 3569 2628 3553 
L 2631 2963 
z
" id="DejaVuSans-72" transform="scale(0.015625)"/>
       </defs>
       <use xlink:href="#DejaVuSans-4d"/>
       <use x="86.279297" xlink:href="#DejaVuSans-61"/>
       <use x="147.558594" xlink:href="#DejaVuSans-72"/>
      </g>
     </g>
    </g>
    <g id="xtick_4">
     <g id="line2d_7">
      <path clip-path="url(#pb4e2ab4481)" d="M 340.52469 548.485875 
L 340.52469 113.605875 
" style="fill:none;stroke:#b0b0b0;stroke-dasharray:3.7,1.6;stroke-dashoffset:0;"/>
     </g>
     <g id="line2d_8">
      <g>
       <use style="stroke:#000000;stroke-width:0.8;" x="340.52469" xlink:href="#m3d3ae3f36a" y="548.485875"/>
      </g>
     </g>
     <g id="text_4">
      <!-- Apr -->
      <g transform="translate(323.22469 567.18275)scale(0.2 -0.2)">
       <defs>
        <path d="M 2188 4044 
L 1331 1722 
L 3047 1722 
L 2188 4044 
z
M 1831 4666 
L 2547 4666 
L 4325 0 
L 3669 0 
L 3244 1197 
L 1141 1197 
L 716 0 
L 50 0 
L 1831 4666 
z
" id="DejaVuSans-41" transform="scale(0.015625)"/>
        <path d="M 1159 525 
L 1159 -1331 
L 581 -1331 
L 581 3500 
L 1159 3500 
L 1159 2969 
Q 1341 3281 1617 3432 
Q 1894 3584 2278 3584 
Q 2916 3584 3314 3078 
Q 3713 2572 3713 1747 
Q 3713 922 3314 415 
Q 2916 -91 2278 -91 
Q 1894 -91 1617 61 
Q 1341 213 1159 525 
z
M 3116 1747 
Q 3116 2381 2855 2742 
Q 2594 3103 2138 3103 
Q 1681 3103 1420 2742 
Q 1159 2381 1159 1747 
Q 1159 1113 1420 752 
Q 1681 391 2138 391 
Q 2594 391 2855 752 
Q 3116 1113 3116 1747 
z
" id="DejaVuSans-70" transform="scale(0.015625)"/>
       </defs>
       <use xlink:href="#DejaVuSans-41"/>
       <use x="68.408203" xlink:href="#DejaVuSans-70"/>
       <use x="131.884766" xlink:href="#DejaVuSans-72"/>
      </g>
     </g>
    </g>
    <g id="xtick_5">
     <g id="line2d_9">
      <path clip-path="url(#pb4e2ab4481)" d="M 414.309814 548.485875 
L 414.309814 113.605875 
" style="fill:none;stroke:#b0b0b0;stroke-dasharray:3.7,1.6;stroke-dashoffset:0;"/>
     </g>
     <g id="line2d_10">
      <g>
       <use style="stroke:#000000;stroke-width:0.8;" x="414.309814" xlink:href="#m3d3ae3f36a" y="548.485875"/>
      </g>
     </g>
     <g id="text_5">
      <!-- May -->
      <g transform="translate(393.634814 567.18275)scale(0.2 -0.2)">
       <defs>
        <path d="M 2059 -325 
Q 1816 -950 1584 -1140 
Q 1353 -1331 966 -1331 
L 506 -1331 
L 506 -850 
L 844 -850 
Q 1081 -850 1212 -737 
Q 1344 -625 1503 -206 
L 1606 56 
L 191 3500 
L 800 3500 
L 1894 763 
L 2988 3500 
L 3597 3500 
L 2059 -325 
z
" id="DejaVuSans-79" transform="scale(0.015625)"/>
       </defs>
       <use xlink:href="#DejaVuSans-4d"/>
       <use x="86.279297" xlink:href="#DejaVuSans-61"/>
       <use x="147.558594" xlink:href="#DejaVuSans-79"/>
      </g>
     </g>
    </g>
    <g id="xtick_6">
     <g id="line2d_11">
      <path clip-path="url(#pb4e2ab4481)" d="M 488.094938 548.485875 
L 488.094938 113.605875 
" style="fill:none;stroke:#b0b0b0;stroke-dasharray:3.7,1.6;stroke-dashoffset:0;"/>
     </g>
     <g id="line2d_12">
      <g>
       <use style="stroke:#000000;stroke-width:0.8;" x="488.094938" xlink:href="#m3d3ae3f36a" y="548.485875"/>
      </g>
     </g>
     <g id="text_6">
      <!-- Jun -->
      <g transform="translate(472.469938 567.18275)scale(0.2 -0.2)">
       <defs>
        <path d="M 544 1381 
L 544 3500 
L 1119 3500 
L 1119 1403 
Q 1119 906 1312 657 
Q 1506 409 1894 409 
Q 2359 409 2629 706 
Q 2900 1003 2900 1516 
L 2900 3500 
L 3475 3500 
L 3475 0 
L 2900 0 
L 2900 538 
Q 2691 219 2414 64 
Q 2138 -91 1772 -91 
Q 1169 -91 856 284 
Q 544 659 544 1381 
z
M 1991 3584 
L 1991 3584 
z
" id="DejaVuSans-75" transform="scale(0.015625)"/>
       </defs>
       <use xlink:href="#DejaVuSans-4a"/>
       <use x="29.492188" xlink:href="#DejaVuSans-75"/>
       <use x="92.871094" xlink:href="#DejaVuSans-6e"/>
      </g>
     </g>
    </g>
    <g id="xtick_7">
     <g id="line2d_13">
      <path clip-path="url(#pb4e2ab4481)" d="M 561.880062 548.485875 
L 561.880062 113.605875 
" style="fill:none;stroke:#b0b0b0;stroke-dasharray:3.7,1.6;stroke-dashoffset:0;"/>
     </g>
     <g id="line2d_14">
      <g>
       <use style="stroke:#000000;stroke-width:0.8;" x="561.880062" xlink:href="#m3d3ae3f36a" y="548.485875"/>
      </g>
     </g>
     <g id="text_7">
      <!-- Jul -->
      <g transform="translate(549.814437 567.18275)scale(0.2 -0.2)">
       <defs>
        <path d="M 603 4863 
L 1178 4863 
L 1178 0 
L 603 0 
L 603 4863 
z
" id="DejaVuSans-6c" transform="scale(0.015625)"/>
       </defs>
       <use xlink:href="#DejaVuSans-4a"/>
       <use x="29.492188" xlink:href="#DejaVuSans-75"/>
       <use x="92.871094" xlink:href="#DejaVuSans-6c"/>
      </g>
     </g>
    </g>
    <g id="xtick_8">
     <g id="line2d_15">
      <path clip-path="url(#pb4e2ab4481)" d="M 635.665186 548.485875 
L 635.665186 113.605875 
" style="fill:none;stroke:#b0b0b0;stroke-dasharray:3.7,1.6;stroke-dashoffset:0;"/>
     </g>
     <g id="line2d_16">
      <g>
       <use style="stroke:#000000;stroke-width:0.8;" x="635.665186" xlink:href="#m3d3ae3f36a" y="548.485875"/>
      </g>
     </g>
     <g id="text_8">
      <!-- Aug -->
      <g transform="translate(616.138623 567.18275)scale(0.2 -0.2)">
       <defs>
        <path d="M 2906 1791 
Q 2906 2416 2648 2759 
Q 2391 3103 1925 3103 
Q 1463 3103 1205 2759 
Q 947 2416 947 1791 
Q 947 1169 1205 825 
Q 1463 481 1925 481 
Q 2391 481 2648 825 
Q 2906 1169 2906 1791 
z
M 3481 434 
Q 3481 -459 3084 -895 
Q 2688 -1331 1869 -1331 
Q 1566 -1331 1297 -1286 
Q 1028 -1241 775 -1147 
L 775 -588 
Q 1028 -725 1275 -790 
Q 1522 -856 1778 -856 
Q 2344 -856 2625 -561 
Q 2906 -266 2906 331 
L 2906 616 
Q 2728 306 2450 153 
Q 2172 0 1784 0 
Q 1141 0 747 490 
Q 353 981 353 1791 
Q 353 2603 747 3093 
Q 1141 3584 1784 3584 
Q 2172 3584 2450 3431 
Q 2728 3278 2906 2969 
L 2906 3500 
L 3481 3500 
L 3481 434 
z
" id="DejaVuSans-67" transform="scale(0.015625)"/>
       </defs>
       <use xlink:href="#DejaVuSans-41"/>
       <use x="68.408203" xlink:href="#DejaVuSans-75"/>
       <use x="131.787109" xlink:href="#DejaVuSans-67"/>
      </g>
     </g>
    </g>
    <g id="xtick_9">
     <g id="line2d_17">
      <path clip-path="url(#pb4e2ab4481)" d="M 709.45031 548.485875 
L 709.45031 113.605875 
" style="fill:none;stroke:#b0b0b0;stroke-dasharray:3.7,1.6;stroke-dashoffset:0;"/>
     </g>
     <g id="line2d_18">
      <g>
       <use style="stroke:#000000;stroke-width:0.8;" x="709.45031" xlink:href="#m3d3ae3f36a" y="548.485875"/>
      </g>
     </g>
     <g id="text_9">
      <!-- Sep -->
      <g transform="translate(690.60031 567.18275)scale(0.2 -0.2)">
       <defs>
        <path d="M 3425 4513 
L 3425 3897 
Q 3066 4069 2747 4153 
Q 2428 4238 2131 4238 
Q 1616 4238 1336 4038 
Q 1056 3838 1056 3469 
Q 1056 3159 1242 3001 
Q 1428 2844 1947 2747 
L 2328 2669 
Q 3034 2534 3370 2195 
Q 3706 1856 3706 1288 
Q 3706 609 3251 259 
Q 2797 -91 1919 -91 
Q 1588 -91 1214 -16 
Q 841 59 441 206 
L 441 856 
Q 825 641 1194 531 
Q 1563 422 1919 422 
Q 2459 422 2753 634 
Q 3047 847 3047 1241 
Q 3047 1584 2836 1778 
Q 2625 1972 2144 2069 
L 1759 2144 
Q 1053 2284 737 2584 
Q 422 2884 422 3419 
Q 422 4038 858 4394 
Q 1294 4750 2059 4750 
Q 2388 4750 2728 4690 
Q 3069 4631 3425 4513 
z
" id="DejaVuSans-53" transform="scale(0.015625)"/>
       </defs>
       <use xlink:href="#DejaVuSans-53"/>
       <use x="63.476562" xlink:href="#DejaVuSans-65"/>
       <use x="125" xlink:href="#DejaVuSans-70"/>
      </g>
     </g>
    </g>
    <g id="xtick_10">
     <g id="line2d_19">
      <path clip-path="url(#pb4e2ab4481)" d="M 783.235434 548.485875 
L 783.235434 113.605875 
" style="fill:none;stroke:#b0b0b0;stroke-dasharray:3.7,1.6;stroke-dashoffset:0;"/>
     </g>
     <g id="line2d_20">
      <g>
       <use style="stroke:#000000;stroke-width:0.8;" x="783.235434" xlink:href="#m3d3ae3f36a" y="548.485875"/>
      </g>
     </g>
     <g id="text_10">
      <!-- Oct -->
      <g transform="translate(765.944809 567.18275)scale(0.2 -0.2)">
       <defs>
        <path d="M 2522 4238 
Q 1834 4238 1429 3725 
Q 1025 3213 1025 2328 
Q 1025 1447 1429 934 
Q 1834 422 2522 422 
Q 3209 422 3611 934 
Q 4013 1447 4013 2328 
Q 4013 3213 3611 3725 
Q 3209 4238 2522 4238 
z
M 2522 4750 
Q 3503 4750 4090 4092 
Q 4678 3434 4678 2328 
Q 4678 1225 4090 567 
Q 3503 -91 2522 -91 
Q 1538 -91 948 565 
Q 359 1222 359 2328 
Q 359 3434 948 4092 
Q 1538 4750 2522 4750 
z
" id="DejaVuSans-4f" transform="scale(0.015625)"/>
        <path d="M 3122 3366 
L 3122 2828 
Q 2878 2963 2633 3030 
Q 2388 3097 2138 3097 
Q 1578 3097 1268 2742 
Q 959 2388 959 1747 
Q 959 1106 1268 751 
Q 1578 397 2138 397 
Q 2388 397 2633 464 
Q 2878 531 3122 666 
L 3122 134 
Q 2881 22 2623 -34 
Q 2366 -91 2075 -91 
Q 1284 -91 818 406 
Q 353 903 353 1747 
Q 353 2603 823 3093 
Q 1294 3584 2113 3584 
Q 2378 3584 2631 3529 
Q 2884 3475 3122 3366 
z
" id="DejaVuSans-63" transform="scale(0.015625)"/>
        <path d="M 1172 4494 
L 1172 3500 
L 2356 3500 
L 2356 3053 
L 1172 3053 
L 1172 1153 
Q 1172 725 1289 603 
Q 1406 481 1766 481 
L 2356 481 
L 2356 0 
L 1766 0 
Q 1100 0 847 248 
Q 594 497 594 1153 
L 594 3053 
L 172 3053 
L 172 3500 
L 594 3500 
L 594 4494 
L 1172 4494 
z
" id="DejaVuSans-74" transform="scale(0.015625)"/>
       </defs>
       <use xlink:href="#DejaVuSans-4f"/>
       <use x="78.710938" xlink:href="#DejaVuSans-63"/>
       <use x="133.691406" xlink:href="#DejaVuSans-74"/>
      </g>
     </g>
    </g>
    <g id="xtick_11">
     <g id="line2d_21">
      <path clip-path="url(#pb4e2ab4481)" d="M 857.020558 548.485875 
L 857.020558 113.605875 
" style="fill:none;stroke:#b0b0b0;stroke-dasharray:3.7,1.6;stroke-dashoffset:0;"/>
     </g>
     <g id="line2d_22">
      <g>
       <use style="stroke:#000000;stroke-width:0.8;" x="857.020558" xlink:href="#m3d3ae3f36a" y="548.485875"/>
      </g>
     </g>
     <g id="text_11">
      <!-- Nov -->
      <g transform="translate(837.501808 567.18275)scale(0.2 -0.2)">
       <defs>
        <path d="M 628 4666 
L 1478 4666 
L 3547 763 
L 3547 4666 
L 4159 4666 
L 4159 0 
L 3309 0 
L 1241 3903 
L 1241 0 
L 628 0 
L 628 4666 
z
" id="DejaVuSans-4e" transform="scale(0.015625)"/>
        <path d="M 1959 3097 
Q 1497 3097 1228 2736 
Q 959 2375 959 1747 
Q 959 1119 1226 758 
Q 1494 397 1959 397 
Q 2419 397 2687 759 
Q 2956 1122 2956 1747 
Q 2956 2369 2687 2733 
Q 2419 3097 1959 3097 
z
M 1959 3584 
Q 2709 3584 3137 3096 
Q 3566 2609 3566 1747 
Q 3566 888 3137 398 
Q 2709 -91 1959 -91 
Q 1206 -91 779 398 
Q 353 888 353 1747 
Q 353 2609 779 3096 
Q 1206 3584 1959 3584 
z
" id="DejaVuSans-6f" transform="scale(0.015625)"/>
        <path d="M 191 3500 
L 800 3500 
L 1894 563 
L 2988 3500 
L 3597 3500 
L 2284 0 
L 1503 0 
L 191 3500 
z
" id="DejaVuSans-76" transform="scale(0.015625)"/>
       </defs>
       <use xlink:href="#DejaVuSans-4e"/>
       <use x="74.804688" xlink:href="#DejaVuSans-6f"/>
       <use x="135.986328" xlink:href="#DejaVuSans-76"/>
      </g>
     </g>
    </g>
    <g id="xtick_12">
     <g id="line2d_23">
      <path clip-path="url(#pb4e2ab4481)" d="M 930.805682 548.485875 
L 930.805682 113.605875 
" style="fill:none;stroke:#b0b0b0;stroke-dasharray:3.7,1.6;stroke-dashoffset:0;"/>
     </g>
     <g id="line2d_24">
      <g>
       <use style="stroke:#000000;stroke-width:0.8;" x="930.805682" xlink:href="#m3d3ae3f36a" y="548.485875"/>
      </g>
     </g>
     <g id="text_12">
      <!-- Dec -->
      <g transform="translate(911.454119 567.18275)scale(0.2 -0.2)">
       <defs>
        <path d="M 1259 4147 
L 1259 519 
L 2022 519 
Q 2988 519 3436 956 
Q 3884 1394 3884 2338 
Q 3884 3275 3436 3711 
Q 2988 4147 2022 4147 
L 1259 4147 
z
M 628 4666 
L 1925 4666 
Q 3281 4666 3915 4102 
Q 4550 3538 4550 2338 
Q 4550 1131 3912 565 
Q 3275 0 1925 0 
L 628 0 
L 628 4666 
z
" id="DejaVuSans-44" transform="scale(0.015625)"/>
       </defs>
       <use xlink:href="#DejaVuSans-44"/>
       <use x="77.001953" xlink:href="#DejaVuSans-65"/>
       <use x="138.525391" xlink:href="#DejaVuSans-63"/>
      </g>
     </g>
    </g>
    <g id="text_13">
     <!-- Incremental Months -->
     <g transform="translate(425.375 590.539)scale(0.2 -0.2)">
      <defs>
       <path d="M 628 4666 
L 1259 4666 
L 1259 0 
L 628 0 
L 628 4666 
z
" id="DejaVuSans-49" transform="scale(0.015625)"/>
       <path d="M 3328 2828 
Q 3544 3216 3844 3400 
Q 4144 3584 4550 3584 
Q 5097 3584 5394 3201 
Q 5691 2819 5691 2113 
L 5691 0 
L 5113 0 
L 5113 2094 
Q 5113 2597 4934 2840 
Q 4756 3084 4391 3084 
Q 3944 3084 3684 2787 
Q 3425 2491 3425 1978 
L 3425 0 
L 2847 0 
L 2847 2094 
Q 2847 2600 2669 2842 
Q 2491 3084 2119 3084 
Q 1678 3084 1418 2786 
Q 1159 2488 1159 1978 
L 1159 0 
L 581 0 
L 581 3500 
L 1159 3500 
L 1159 2956 
Q 1356 3278 1631 3431 
Q 1906 3584 2284 3584 
Q 2666 3584 2933 3390 
Q 3200 3197 3328 2828 
z
" id="DejaVuSans-6d" transform="scale(0.015625)"/>
       <path id="DejaVuSans-20" transform="scale(0.015625)"/>
       <path d="M 3513 2113 
L 3513 0 
L 2938 0 
L 2938 2094 
Q 2938 2591 2744 2837 
Q 2550 3084 2163 3084 
Q 1697 3084 1428 2787 
Q 1159 2491 1159 1978 
L 1159 0 
L 581 0 
L 581 4863 
L 1159 4863 
L 1159 2956 
Q 1366 3272 1645 3428 
Q 1925 3584 2291 3584 
Q 2894 3584 3203 3211 
Q 3513 2838 3513 2113 
z
" id="DejaVuSans-68" transform="scale(0.015625)"/>
       <path d="M 2834 3397 
L 2834 2853 
Q 2591 2978 2328 3040 
Q 2066 3103 1784 3103 
Q 1356 3103 1142 2972 
Q 928 2841 928 2578 
Q 928 2378 1081 2264 
Q 1234 2150 1697 2047 
L 1894 2003 
Q 2506 1872 2764 1633 
Q 3022 1394 3022 966 
Q 3022 478 2636 193 
Q 2250 -91 1575 -91 
Q 1294 -91 989 -36 
Q 684 19 347 128 
L 347 722 
Q 666 556 975 473 
Q 1284 391 1588 391 
Q 1994 391 2212 530 
Q 2431 669 2431 922 
Q 2431 1156 2273 1281 
Q 2116 1406 1581 1522 
L 1381 1569 
Q 847 1681 609 1914 
Q 372 2147 372 2553 
Q 372 3047 722 3315 
Q 1072 3584 1716 3584 
Q 2034 3584 2315 3537 
Q 2597 3491 2834 3397 
z
" id="DejaVuSans-73" transform="scale(0.015625)"/>
      </defs>
      <use xlink:href="#DejaVuSans-49"/>
      <use x="29.492188" xlink:href="#DejaVuSans-6e"/>
      <use x="92.871094" xlink:href="#DejaVuSans-63"/>
      <use x="147.851562" xlink:href="#DejaVuSans-72"/>
      <use x="186.714844" xlink:href="#DejaVuSans-65"/>
      <use x="248.238281" xlink:href="#DejaVuSans-6d"/>
      <use x="345.650391" xlink:href="#DejaVuSans-65"/>
      <use x="407.173828" xlink:href="#DejaVuSans-6e"/>
      <use x="470.552734" xlink:href="#DejaVuSans-74"/>
      <use x="509.761719" xlink:href="#DejaVuSans-61"/>
      <use x="571.041016" xlink:href="#DejaVuSans-6c"/>
      <use x="598.824219" xlink:href="#DejaVuSans-20"/>
      <use x="630.611328" xlink:href="#DejaVuSans-4d"/>
      <use x="716.890625" xlink:href="#DejaVuSans-6f"/>
      <use x="778.072266" xlink:href="#DejaVuSans-6e"/>
      <use x="841.451172" xlink:href="#DejaVuSans-74"/>
      <use x="880.660156" xlink:href="#DejaVuSans-68"/>
      <use x="944.039062" xlink:href="#DejaVuSans-73"/>
     </g>
    </g>
   </g>
   <g id="matplotlib.axis_2">
    <g id="ytick_1">
     <g id="line2d_25">
      <path clip-path="url(#pb4e2ab4481)" d="M 78.5875 539.389168 
L 971.3875 539.389168 
" style="fill:none;stroke:#b0b0b0;stroke-dasharray:3.7,1.6;stroke-dashoffset:0;"/>
     </g>
     <g id="line2d_26">
      <defs>
       <path d="M 0 0 
L 5 0 
" id="me9d8723329" style="stroke:#000000;stroke-width:0.8;"/>
      </defs>
      <g>
       <use style="stroke:#000000;stroke-width:0.8;" x="78.5875" xlink:href="#me9d8723329" y="539.389168"/>
      </g>
     </g>
     <g id="text_14">
      <!-- 0.90 -->
      <g transform="translate(30.55625 546.987606)scale(0.2 -0.2)">
       <defs>
        <path d="M 2034 4250 
Q 1547 4250 1301 3770 
Q 1056 3291 1056 2328 
Q 1056 1369 1301 889 
Q 1547 409 2034 409 
Q 2525 409 2770 889 
Q 3016 1369 3016 2328 
Q 3016 3291 2770 3770 
Q 2525 4250 2034 4250 
z
M 2034 4750 
Q 2819 4750 3233 4129 
Q 3647 3509 3647 2328 
Q 3647 1150 3233 529 
Q 2819 -91 2034 -91 
Q 1250 -91 836 529 
Q 422 1150 422 2328 
Q 422 3509 836 4129 
Q 1250 4750 2034 4750 
z
" id="DejaVuSans-30" transform="scale(0.015625)"/>
        <path d="M 684 794 
L 1344 794 
L 1344 0 
L 684 0 
L 684 794 
z
" id="DejaVuSans-2e" transform="scale(0.015625)"/>
        <path d="M 703 97 
L 703 672 
Q 941 559 1184 500 
Q 1428 441 1663 441 
Q 2288 441 2617 861 
Q 2947 1281 2994 2138 
Q 2813 1869 2534 1725 
Q 2256 1581 1919 1581 
Q 1219 1581 811 2004 
Q 403 2428 403 3163 
Q 403 3881 828 4315 
Q 1253 4750 1959 4750 
Q 2769 4750 3195 4129 
Q 3622 3509 3622 2328 
Q 3622 1225 3098 567 
Q 2575 -91 1691 -91 
Q 1453 -91 1209 -44 
Q 966 3 703 97 
z
M 1959 2075 
Q 2384 2075 2632 2365 
Q 2881 2656 2881 3163 
Q 2881 3666 2632 3958 
Q 2384 4250 1959 4250 
Q 1534 4250 1286 3958 
Q 1038 3666 1038 3163 
Q 1038 2656 1286 2365 
Q 1534 2075 1959 2075 
z
" id="DejaVuSans-39" transform="scale(0.015625)"/>
       </defs>
       <use xlink:href="#DejaVuSans-30"/>
       <use x="63.623047" xlink:href="#DejaVuSans-2e"/>
       <use x="95.410156" xlink:href="#DejaVuSans-39"/>
       <use x="159.033203" xlink:href="#DejaVuSans-30"/>
      </g>
     </g>
    </g>
    <g id="ytick_2">
     <g id="line2d_27">
      <path clip-path="url(#pb4e2ab4481)" d="M 78.5875 480.097936 
L 971.3875 480.097936 
" style="fill:none;stroke:#b0b0b0;stroke-dasharray:3.7,1.6;stroke-dashoffset:0;"/>
     </g>
     <g id="line2d_28">
      <g>
       <use style="stroke:#000000;stroke-width:0.8;" x="78.5875" xlink:href="#me9d8723329" y="480.097936"/>
      </g>
     </g>
     <g id="text_15">
      <!-- 0.91 -->
      <g transform="translate(30.55625 487.696374)scale(0.2 -0.2)">
       <defs>
        <path d="M 794 531 
L 1825 531 
L 1825 4091 
L 703 3866 
L 703 4441 
L 1819 4666 
L 2450 4666 
L 2450 531 
L 3481 531 
L 3481 0 
L 794 0 
L 794 531 
z
" id="DejaVuSans-31" transform="scale(0.015625)"/>
       </defs>
       <use xlink:href="#DejaVuSans-30"/>
       <use x="63.623047" xlink:href="#DejaVuSans-2e"/>
       <use x="95.410156" xlink:href="#DejaVuSans-39"/>
       <use x="159.033203" xlink:href="#DejaVuSans-31"/>
      </g>
     </g>
    </g>
    <g id="ytick_3">
     <g id="line2d_29">
      <path clip-path="url(#pb4e2ab4481)" d="M 78.5875 420.806704 
L 971.3875 420.806704 
" style="fill:none;stroke:#b0b0b0;stroke-dasharray:3.7,1.6;stroke-dashoffset:0;"/>
     </g>
     <g id="line2d_30">
      <g>
       <use style="stroke:#000000;stroke-width:0.8;" x="78.5875" xlink:href="#me9d8723329" y="420.806704"/>
      </g>
     </g>
     <g id="text_16">
      <!-- 0.92 -->
      <g transform="translate(30.55625 428.405142)scale(0.2 -0.2)">
       <defs>
        <path d="M 1228 531 
L 3431 531 
L 3431 0 
L 469 0 
L 469 531 
Q 828 903 1448 1529 
Q 2069 2156 2228 2338 
Q 2531 2678 2651 2914 
Q 2772 3150 2772 3378 
Q 2772 3750 2511 3984 
Q 2250 4219 1831 4219 
Q 1534 4219 1204 4116 
Q 875 4013 500 3803 
L 500 4441 
Q 881 4594 1212 4672 
Q 1544 4750 1819 4750 
Q 2544 4750 2975 4387 
Q 3406 4025 3406 3419 
Q 3406 3131 3298 2873 
Q 3191 2616 2906 2266 
Q 2828 2175 2409 1742 
Q 1991 1309 1228 531 
z
" id="DejaVuSans-32" transform="scale(0.015625)"/>
       </defs>
       <use xlink:href="#DejaVuSans-30"/>
       <use x="63.623047" xlink:href="#DejaVuSans-2e"/>
       <use x="95.410156" xlink:href="#DejaVuSans-39"/>
       <use x="159.033203" xlink:href="#DejaVuSans-32"/>
      </g>
     </g>
    </g>
    <g id="ytick_4">
     <g id="line2d_31">
      <path clip-path="url(#pb4e2ab4481)" d="M 78.5875 361.515472 
L 971.3875 361.515472 
" style="fill:none;stroke:#b0b0b0;stroke-dasharray:3.7,1.6;stroke-dashoffset:0;"/>
     </g>
     <g id="line2d_32">
      <g>
       <use style="stroke:#000000;stroke-width:0.8;" x="78.5875" xlink:href="#me9d8723329" y="361.515472"/>
      </g>
     </g>
     <g id="text_17">
      <!-- 0.93 -->
      <g transform="translate(30.55625 369.11391)scale(0.2 -0.2)">
       <defs>
        <path d="M 2597 2516 
Q 3050 2419 3304 2112 
Q 3559 1806 3559 1356 
Q 3559 666 3084 287 
Q 2609 -91 1734 -91 
Q 1441 -91 1130 -33 
Q 819 25 488 141 
L 488 750 
Q 750 597 1062 519 
Q 1375 441 1716 441 
Q 2309 441 2620 675 
Q 2931 909 2931 1356 
Q 2931 1769 2642 2001 
Q 2353 2234 1838 2234 
L 1294 2234 
L 1294 2753 
L 1863 2753 
Q 2328 2753 2575 2939 
Q 2822 3125 2822 3475 
Q 2822 3834 2567 4026 
Q 2313 4219 1838 4219 
Q 1578 4219 1281 4162 
Q 984 4106 628 3988 
L 628 4550 
Q 988 4650 1302 4700 
Q 1616 4750 1894 4750 
Q 2613 4750 3031 4423 
Q 3450 4097 3450 3541 
Q 3450 3153 3228 2886 
Q 3006 2619 2597 2516 
z
" id="DejaVuSans-33" transform="scale(0.015625)"/>
       </defs>
       <use xlink:href="#DejaVuSans-30"/>
       <use x="63.623047" xlink:href="#DejaVuSans-2e"/>
       <use x="95.410156" xlink:href="#DejaVuSans-39"/>
       <use x="159.033203" xlink:href="#DejaVuSans-33"/>
      </g>
     </g>
    </g>
    <g id="ytick_5">
     <g id="line2d_33">
      <path clip-path="url(#pb4e2ab4481)" d="M 78.5875 302.22424 
L 971.3875 302.22424 
" style="fill:none;stroke:#b0b0b0;stroke-dasharray:3.7,1.6;stroke-dashoffset:0;"/>
     </g>
     <g id="line2d_34">
      <g>
       <use style="stroke:#000000;stroke-width:0.8;" x="78.5875" xlink:href="#me9d8723329" y="302.22424"/>
      </g>
     </g>
     <g id="text_18">
      <!-- 0.94 -->
      <g transform="translate(30.55625 309.822678)scale(0.2 -0.2)">
       <defs>
        <path d="M 2419 4116 
L 825 1625 
L 2419 1625 
L 2419 4116 
z
M 2253 4666 
L 3047 4666 
L 3047 1625 
L 3713 1625 
L 3713 1100 
L 3047 1100 
L 3047 0 
L 2419 0 
L 2419 1100 
L 313 1100 
L 313 1709 
L 2253 4666 
z
" id="DejaVuSans-34" transform="scale(0.015625)"/>
       </defs>
       <use xlink:href="#DejaVuSans-30"/>
       <use x="63.623047" xlink:href="#DejaVuSans-2e"/>
       <use x="95.410156" xlink:href="#DejaVuSans-39"/>
       <use x="159.033203" xlink:href="#DejaVuSans-34"/>
      </g>
     </g>
    </g>
    <g id="ytick_6">
     <g id="line2d_35">
      <path clip-path="url(#pb4e2ab4481)" d="M 78.5875 242.933008 
L 971.3875 242.933008 
" style="fill:none;stroke:#b0b0b0;stroke-dasharray:3.7,1.6;stroke-dashoffset:0;"/>
     </g>
     <g id="line2d_36">
      <g>
       <use style="stroke:#000000;stroke-width:0.8;" x="78.5875" xlink:href="#me9d8723329" y="242.933008"/>
      </g>
     </g>
     <g id="text_19">
      <!-- 0.95 -->
      <g transform="translate(30.55625 250.531446)scale(0.2 -0.2)">
       <defs>
        <path d="M 691 4666 
L 3169 4666 
L 3169 4134 
L 1269 4134 
L 1269 2991 
Q 1406 3038 1543 3061 
Q 1681 3084 1819 3084 
Q 2600 3084 3056 2656 
Q 3513 2228 3513 1497 
Q 3513 744 3044 326 
Q 2575 -91 1722 -91 
Q 1428 -91 1123 -41 
Q 819 9 494 109 
L 494 744 
Q 775 591 1075 516 
Q 1375 441 1709 441 
Q 2250 441 2565 725 
Q 2881 1009 2881 1497 
Q 2881 1984 2565 2268 
Q 2250 2553 1709 2553 
Q 1456 2553 1204 2497 
Q 953 2441 691 2322 
L 691 4666 
z
" id="DejaVuSans-35" transform="scale(0.015625)"/>
       </defs>
       <use xlink:href="#DejaVuSans-30"/>
       <use x="63.623047" xlink:href="#DejaVuSans-2e"/>
       <use x="95.410156" xlink:href="#DejaVuSans-39"/>
       <use x="159.033203" xlink:href="#DejaVuSans-35"/>
      </g>
     </g>
    </g>
    <g id="ytick_7">
     <g id="line2d_37">
      <path clip-path="url(#pb4e2ab4481)" d="M 78.5875 183.641776 
L 971.3875 183.641776 
" style="fill:none;stroke:#b0b0b0;stroke-dasharray:3.7,1.6;stroke-dashoffset:0;"/>
     </g>
     <g id="line2d_38">
      <g>
       <use style="stroke:#000000;stroke-width:0.8;" x="78.5875" xlink:href="#me9d8723329" y="183.641776"/>
      </g>
     </g>
     <g id="text_20">
      <!-- 0.96 -->
      <g transform="translate(30.55625 191.240213)scale(0.2 -0.2)">
       <defs>
        <path d="M 2113 2584 
Q 1688 2584 1439 2293 
Q 1191 2003 1191 1497 
Q 1191 994 1439 701 
Q 1688 409 2113 409 
Q 2538 409 2786 701 
Q 3034 994 3034 1497 
Q 3034 2003 2786 2293 
Q 2538 2584 2113 2584 
z
M 3366 4563 
L 3366 3988 
Q 3128 4100 2886 4159 
Q 2644 4219 2406 4219 
Q 1781 4219 1451 3797 
Q 1122 3375 1075 2522 
Q 1259 2794 1537 2939 
Q 1816 3084 2150 3084 
Q 2853 3084 3261 2657 
Q 3669 2231 3669 1497 
Q 3669 778 3244 343 
Q 2819 -91 2113 -91 
Q 1303 -91 875 529 
Q 447 1150 447 2328 
Q 447 3434 972 4092 
Q 1497 4750 2381 4750 
Q 2619 4750 2861 4703 
Q 3103 4656 3366 4563 
z
" id="DejaVuSans-36" transform="scale(0.015625)"/>
       </defs>
       <use xlink:href="#DejaVuSans-30"/>
       <use x="63.623047" xlink:href="#DejaVuSans-2e"/>
       <use x="95.410156" xlink:href="#DejaVuSans-39"/>
       <use x="159.033203" xlink:href="#DejaVuSans-36"/>
      </g>
     </g>
    </g>
    <g id="ytick_8">
     <g id="line2d_39">
      <path clip-path="url(#pb4e2ab4481)" d="M 78.5875 124.350544 
L 971.3875 124.350544 
" style="fill:none;stroke:#b0b0b0;stroke-dasharray:3.7,1.6;stroke-dashoffset:0;"/>
     </g>
     <g id="line2d_40">
      <g>
       <use style="stroke:#000000;stroke-width:0.8;" x="78.5875" xlink:href="#me9d8723329" y="124.350544"/>
      </g>
     </g>
     <g id="text_21">
      <!-- 0.97 -->
      <g transform="translate(30.55625 131.948981)scale(0.2 -0.2)">
       <defs>
        <path d="M 525 4666 
L 3525 4666 
L 3525 4397 
L 1831 0 
L 1172 0 
L 2766 4134 
L 525 4134 
L 525 4666 
z
" id="DejaVuSans-37" transform="scale(0.015625)"/>
       </defs>
       <use xlink:href="#DejaVuSans-30"/>
       <use x="63.623047" xlink:href="#DejaVuSans-2e"/>
       <use x="95.410156" xlink:href="#DejaVuSans-39"/>
       <use x="159.033203" xlink:href="#DejaVuSans-37"/>
      </g>
     </g>
    </g>
    <g id="text_22">
     <!-- Accuracy -->
     <g transform="translate(22.396875 376.702125)rotate(-90)scale(0.2 -0.2)">
      <use xlink:href="#DejaVuSans-41"/>
      <use x="66.658203" xlink:href="#DejaVuSans-63"/>
      <use x="121.638672" xlink:href="#DejaVuSans-63"/>
      <use x="176.619141" xlink:href="#DejaVuSans-75"/>
      <use x="239.998047" xlink:href="#DejaVuSans-72"/>
      <use x="281.111328" xlink:href="#DejaVuSans-61"/>
      <use x="342.390625" xlink:href="#DejaVuSans-63"/>
      <use x="397.371094" xlink:href="#DejaVuSans-79"/>
     </g>
    </g>
   </g>
   <g id="line2d_41">
    <path clip-path="url(#pb4e2ab4481)" d="M 119.169318 368.515131 
L 192.954442 302.131554 
L 266.739566 311.695745 
L 340.52469 262.421926 
L 414.309814 269.733692 
L 488.094938 263.986554 
L 561.880062 231.925878 
L 635.665186 233.652939 
L 709.45031 244.181685 
L 783.235434 211.689338 
L 857.020558 223.281708 
L 930.805682 192.590083 
" style="fill:none;stroke:#6495ed;stroke-linecap:square;stroke-width:3;"/>
    <defs>
     <path d="M 0 -6 
L -5.706339 -1.854102 
L -3.526712 4.854102 
L 3.526712 4.854102 
L 5.706339 -1.854102 
z
" id="m1764ee5fc0" style="stroke:#6495ed;stroke-linejoin:miter;"/>
    </defs>
    <g clip-path="url(#pb4e2ab4481)">
     <use style="fill:#6495ed;stroke:#6495ed;stroke-linejoin:miter;" x="119.169318" xlink:href="#m1764ee5fc0" y="368.515131"/>
     <use style="fill:#6495ed;stroke:#6495ed;stroke-linejoin:miter;" x="192.954442" xlink:href="#m1764ee5fc0" y="302.131554"/>
     <use style="fill:#6495ed;stroke:#6495ed;stroke-linejoin:miter;" x="266.739566" xlink:href="#m1764ee5fc0" y="311.695745"/>
     <use style="fill:#6495ed;stroke:#6495ed;stroke-linejoin:miter;" x="340.52469" xlink:href="#m1764ee5fc0" y="262.421926"/>
     <use style="fill:#6495ed;stroke:#6495ed;stroke-linejoin:miter;" x="414.309814" xlink:href="#m1764ee5fc0" y="269.733692"/>
     <use style="fill:#6495ed;stroke:#6495ed;stroke-linejoin:miter;" x="488.094938" xlink:href="#m1764ee5fc0" y="263.986554"/>
     <use style="fill:#6495ed;stroke:#6495ed;stroke-linejoin:miter;" x="561.880062" xlink:href="#m1764ee5fc0" y="231.925878"/>
     <use style="fill:#6495ed;stroke:#6495ed;stroke-linejoin:miter;" x="635.665186" xlink:href="#m1764ee5fc0" y="233.652939"/>
     <use style="fill:#6495ed;stroke:#6495ed;stroke-linejoin:miter;" x="709.45031" xlink:href="#m1764ee5fc0" y="244.181685"/>
     <use style="fill:#6495ed;stroke:#6495ed;stroke-linejoin:miter;" x="783.235434" xlink:href="#m1764ee5fc0" y="211.689338"/>
     <use style="fill:#6495ed;stroke:#6495ed;stroke-linejoin:miter;" x="857.020558" xlink:href="#m1764ee5fc0" y="223.281708"/>
     <use style="fill:#6495ed;stroke:#6495ed;stroke-linejoin:miter;" x="930.805682" xlink:href="#m1764ee5fc0" y="192.590083"/>
    </g>
   </g>
   <g id="line2d_42">
    <path clip-path="url(#pb4e2ab4481)" d="M 119.169318 388.47996 
L 192.954442 280.604346 
L 266.739566 284.653959 
L 340.52469 244.312926 
L 414.309814 235.065399 
L 488.094938 233.594296 
L 561.880062 198.208251 
L 635.665186 193.956381 
L 709.45031 198.265477 
L 783.235434 173.118051 
L 857.020558 207.839984 
L 930.805682 175.265206 
" style="fill:none;stroke:#800080;stroke-linecap:square;stroke-width:3;"/>
    <defs>
     <path d="M 0 6 
C 1.591219 6 3.117479 5.367802 4.242641 4.242641 
C 5.367802 3.117479 6 1.591219 6 0 
C 6 -1.591219 5.367802 -3.117479 4.242641 -4.242641 
C 3.117479 -5.367802 1.591219 -6 0 -6 
C -1.591219 -6 -3.117479 -5.367802 -4.242641 -4.242641 
C -5.367802 -3.117479 -6 -1.591219 -6 0 
C -6 1.591219 -5.367802 3.117479 -4.242641 4.242641 
C -3.117479 5.367802 -1.591219 6 0 6 
z
" id="m3dfe0249e2" style="stroke:#800080;"/>
    </defs>
    <g clip-path="url(#pb4e2ab4481)">
     <use style="fill:#800080;stroke:#800080;" x="119.169318" xlink:href="#m3dfe0249e2" y="388.47996"/>
     <use style="fill:#800080;stroke:#800080;" x="192.954442" xlink:href="#m3dfe0249e2" y="280.604346"/>
     <use style="fill:#800080;stroke:#800080;" x="266.739566" xlink:href="#m3dfe0249e2" y="284.653959"/>
     <use style="fill:#800080;stroke:#800080;" x="340.52469" xlink:href="#m3dfe0249e2" y="244.312926"/>
     <use style="fill:#800080;stroke:#800080;" x="414.309814" xlink:href="#m3dfe0249e2" y="235.065399"/>
     <use style="fill:#800080;stroke:#800080;" x="488.094938" xlink:href="#m3dfe0249e2" y="233.594296"/>
     <use style="fill:#800080;stroke:#800080;" x="561.880062" xlink:href="#m3dfe0249e2" y="198.208251"/>
     <use style="fill:#800080;stroke:#800080;" x="635.665186" xlink:href="#m3dfe0249e2" y="193.956381"/>
     <use style="fill:#800080;stroke:#800080;" x="709.45031" xlink:href="#m3dfe0249e2" y="198.265477"/>
     <use style="fill:#800080;stroke:#800080;" x="783.235434" xlink:href="#m3dfe0249e2" y="173.118051"/>
     <use style="fill:#800080;stroke:#800080;" x="857.020558" xlink:href="#m3dfe0249e2" y="207.839984"/>
     <use style="fill:#800080;stroke:#800080;" x="930.805682" xlink:href="#m3dfe0249e2" y="175.265206"/>
    </g>
   </g>
   <g id="line2d_43">
    <path clip-path="url(#pb4e2ab4481)" d="M 119.169318 372.105928 
L 192.954442 287.201962 
L 266.739566 272.349632 
L 340.52469 230.198072 
L 414.309814 212.682164 
L 488.094938 213.172235 
L 561.880062 185.68354 
L 635.665186 178.774388 
L 709.45031 199.555418 
L 783.235434 176.619791 
L 857.020558 222.244667 
L 930.805682 160.344858 
" style="fill:none;stroke:#0000ff;stroke-linecap:square;stroke-width:3;"/>
    <defs>
     <path d="M -0 8.485281 
L 8.485281 0 
L 0 -8.485281 
L -8.485281 -0 
z
" id="m3103535d81" style="stroke:#0000ff;stroke-linejoin:miter;"/>
    </defs>
    <g clip-path="url(#pb4e2ab4481)">
     <use style="fill:#0000ff;stroke:#0000ff;stroke-linejoin:miter;" x="119.169318" xlink:href="#m3103535d81" y="372.105928"/>
     <use style="fill:#0000ff;stroke:#0000ff;stroke-linejoin:miter;" x="192.954442" xlink:href="#m3103535d81" y="287.201962"/>
     <use style="fill:#0000ff;stroke:#0000ff;stroke-linejoin:miter;" x="266.739566" xlink:href="#m3103535d81" y="272.349632"/>
     <use style="fill:#0000ff;stroke:#0000ff;stroke-linejoin:miter;" x="340.52469" xlink:href="#m3103535d81" y="230.198072"/>
     <use style="fill:#0000ff;stroke:#0000ff;stroke-linejoin:miter;" x="414.309814" xlink:href="#m3103535d81" y="212.682164"/>
     <use style="fill:#0000ff;stroke:#0000ff;stroke-linejoin:miter;" x="488.094938" xlink:href="#m3103535d81" y="213.172235"/>
     <use style="fill:#0000ff;stroke:#0000ff;stroke-linejoin:miter;" x="561.880062" xlink:href="#m3103535d81" y="185.68354"/>
     <use style="fill:#0000ff;stroke:#0000ff;stroke-linejoin:miter;" x="635.665186" xlink:href="#m3103535d81" y="178.774388"/>
     <use style="fill:#0000ff;stroke:#0000ff;stroke-linejoin:miter;" x="709.45031" xlink:href="#m3103535d81" y="199.555418"/>
     <use style="fill:#0000ff;stroke:#0000ff;stroke-linejoin:miter;" x="783.235434" xlink:href="#m3103535d81" y="176.619791"/>
     <use style="fill:#0000ff;stroke:#0000ff;stroke-linejoin:miter;" x="857.020558" xlink:href="#m3103535d81" y="222.244667"/>
     <use style="fill:#0000ff;stroke:#0000ff;stroke-linejoin:miter;" x="930.805682" xlink:href="#m3103535d81" y="160.344858"/>
    </g>
   </g>
   <g id="line2d_44">
    <path clip-path="url(#pb4e2ab4481)" d="M 119.169318 442.48554 
L 192.954442 386.333394 
L 266.739566 454.773405 
L 340.52469 416.157964 
L 414.309814 528.718602 
L 488.094938 439.709063 
L 561.880062 430.895422 
L 635.665186 406.613608 
L 709.45031 373.475001 
L 783.235434 324.713646 
L 857.020558 351.991443 
L 930.805682 261.485727 
" style="fill:none;stroke:#ee82ee;stroke-linecap:square;stroke-width:3;"/>
    <defs>
     <path d="M -3 6 
L 0 3 
L 3 6 
L 6 3 
L 3 0 
L 6 -3 
L 3 -6 
L 0 -3 
L -3 -6 
L -6 -3 
L -3 0 
L -6 3 
z
" id="m8a38356ec7" style="stroke:#ee82ee;stroke-linejoin:miter;"/>
    </defs>
    <g clip-path="url(#pb4e2ab4481)">
     <use style="fill:#ee82ee;stroke:#ee82ee;stroke-linejoin:miter;" x="119.169318" xlink:href="#m8a38356ec7" y="442.48554"/>
     <use style="fill:#ee82ee;stroke:#ee82ee;stroke-linejoin:miter;" x="192.954442" xlink:href="#m8a38356ec7" y="386.333394"/>
     <use style="fill:#ee82ee;stroke:#ee82ee;stroke-linejoin:miter;" x="266.739566" xlink:href="#m8a38356ec7" y="454.773405"/>
     <use style="fill:#ee82ee;stroke:#ee82ee;stroke-linejoin:miter;" x="340.52469" xlink:href="#m8a38356ec7" y="416.157964"/>
     <use style="fill:#ee82ee;stroke:#ee82ee;stroke-linejoin:miter;" x="414.309814" xlink:href="#m8a38356ec7" y="528.718602"/>
     <use style="fill:#ee82ee;stroke:#ee82ee;stroke-linejoin:miter;" x="488.094938" xlink:href="#m8a38356ec7" y="439.709063"/>
     <use style="fill:#ee82ee;stroke:#ee82ee;stroke-linejoin:miter;" x="561.880062" xlink:href="#m8a38356ec7" y="430.895422"/>
     <use style="fill:#ee82ee;stroke:#ee82ee;stroke-linejoin:miter;" x="635.665186" xlink:href="#m8a38356ec7" y="406.613608"/>
     <use style="fill:#ee82ee;stroke:#ee82ee;stroke-linejoin:miter;" x="709.45031" xlink:href="#m8a38356ec7" y="373.475001"/>
     <use style="fill:#ee82ee;stroke:#ee82ee;stroke-linejoin:miter;" x="783.235434" xlink:href="#m8a38356ec7" y="324.713646"/>
     <use style="fill:#ee82ee;stroke:#ee82ee;stroke-linejoin:miter;" x="857.020558" xlink:href="#m8a38356ec7" y="351.991443"/>
     <use style="fill:#ee82ee;stroke:#ee82ee;stroke-linejoin:miter;" x="930.805682" xlink:href="#m8a38356ec7" y="261.485727"/>
    </g>
   </g>
   <g id="line2d_45">
    <path clip-path="url(#pb4e2ab4481)" d="M 119.169318 346.730966 
L 192.954442 290.801252 
L 266.739566 337.763613 
L 340.52469 325.671536 
L 414.309814 396.72834 
L 488.094938 373.788744 
L 561.880062 337.481372 
L 635.665186 314.320024 
L 709.45031 324.240413 
L 783.235434 285.37012 
L 857.020558 268.99138 
L 930.805682 227.020514 
" style="fill:none;stroke:#ffff00;stroke-linecap:square;stroke-width:3;"/>
    <defs>
     <path d="M -6 0 
L 6 0 
M 0 6 
L 0 -6 
" id="m3abd80e5f9" style="stroke:#ffff00;"/>
    </defs>
    <g clip-path="url(#pb4e2ab4481)">
     <use style="fill:#ffff00;stroke:#ffff00;" x="119.169318" xlink:href="#m3abd80e5f9" y="346.730966"/>
     <use style="fill:#ffff00;stroke:#ffff00;" x="192.954442" xlink:href="#m3abd80e5f9" y="290.801252"/>
     <use style="fill:#ffff00;stroke:#ffff00;" x="266.739566" xlink:href="#m3abd80e5f9" y="337.763613"/>
     <use style="fill:#ffff00;stroke:#ffff00;" x="340.52469" xlink:href="#m3abd80e5f9" y="325.671536"/>
     <use style="fill:#ffff00;stroke:#ffff00;" x="414.309814" xlink:href="#m3abd80e5f9" y="396.72834"/>
     <use style="fill:#ffff00;stroke:#ffff00;" x="488.094938" xlink:href="#m3abd80e5f9" y="373.788744"/>
     <use style="fill:#ffff00;stroke:#ffff00;" x="561.880062" xlink:href="#m3abd80e5f9" y="337.481372"/>
     <use style="fill:#ffff00;stroke:#ffff00;" x="635.665186" xlink:href="#m3abd80e5f9" y="314.320024"/>
     <use style="fill:#ffff00;stroke:#ffff00;" x="709.45031" xlink:href="#m3abd80e5f9" y="324.240413"/>
     <use style="fill:#ffff00;stroke:#ffff00;" x="783.235434" xlink:href="#m3abd80e5f9" y="285.37012"/>
     <use style="fill:#ffff00;stroke:#ffff00;" x="857.020558" xlink:href="#m3abd80e5f9" y="268.99138"/>
     <use style="fill:#ffff00;stroke:#ffff00;" x="930.805682" xlink:href="#m3abd80e5f9" y="227.020514"/>
    </g>
   </g>
   <g id="line2d_46">
    <path clip-path="url(#pb4e2ab4481)" d="M 119.169318 387.905433 
L 192.954442 344.953162 
L 266.739566 419.030864 
L 340.52469 374.873531 
L 414.309814 416.213721 
L 488.094938 371.448377 
L 561.880062 361.335316 
L 635.665186 325.856722 
L 709.45031 316.183844 
L 783.235434 268.015853 
L 857.020558 308.302399 
L 930.805682 248.36365 
" style="fill:none;stroke:#ff0000;stroke-linecap:square;stroke-width:3;"/>
    <defs>
     <path d="M -3 -5.196152 
L -6 -0 
L -3 5.196152 
L 3 5.196152 
L 6 0 
L 3 -5.196152 
z
" id="m7fa5d101ac" style="stroke:#ff0000;stroke-linejoin:miter;"/>
    </defs>
    <g clip-path="url(#pb4e2ab4481)">
     <use style="fill:#ff0000;stroke:#ff0000;stroke-linejoin:miter;" x="119.169318" xlink:href="#m7fa5d101ac" y="387.905433"/>
     <use style="fill:#ff0000;stroke:#ff0000;stroke-linejoin:miter;" x="192.954442" xlink:href="#m7fa5d101ac" y="344.953162"/>
     <use style="fill:#ff0000;stroke:#ff0000;stroke-linejoin:miter;" x="266.739566" xlink:href="#m7fa5d101ac" y="419.030864"/>
     <use style="fill:#ff0000;stroke:#ff0000;stroke-linejoin:miter;" x="340.52469" xlink:href="#m7fa5d101ac" y="374.873531"/>
     <use style="fill:#ff0000;stroke:#ff0000;stroke-linejoin:miter;" x="414.309814" xlink:href="#m7fa5d101ac" y="416.213721"/>
     <use style="fill:#ff0000;stroke:#ff0000;stroke-linejoin:miter;" x="488.094938" xlink:href="#m7fa5d101ac" y="371.448377"/>
     <use style="fill:#ff0000;stroke:#ff0000;stroke-linejoin:miter;" x="561.880062" xlink:href="#m7fa5d101ac" y="361.335316"/>
     <use style="fill:#ff0000;stroke:#ff0000;stroke-linejoin:miter;" x="635.665186" xlink:href="#m7fa5d101ac" y="325.856722"/>
     <use style="fill:#ff0000;stroke:#ff0000;stroke-linejoin:miter;" x="709.45031" xlink:href="#m7fa5d101ac" y="316.183844"/>
     <use style="fill:#ff0000;stroke:#ff0000;stroke-linejoin:miter;" x="783.235434" xlink:href="#m7fa5d101ac" y="268.015853"/>
     <use style="fill:#ff0000;stroke:#ff0000;stroke-linejoin:miter;" x="857.020558" xlink:href="#m7fa5d101ac" y="308.302399"/>
     <use style="fill:#ff0000;stroke:#ff0000;stroke-linejoin:miter;" x="930.805682" xlink:href="#m7fa5d101ac" y="248.36365"/>
    </g>
   </g>
   <g id="line2d_47">
    <path clip-path="url(#pb4e2ab4481)" d="M 119.169318 389.629015 
L 192.954442 360.943301 
L 266.739566 349.088355 
L 340.52469 296.913818 
L 414.309814 291.321705 
L 488.094938 275.454349 
L 561.880062 245.5853 
L 635.665186 245.425231 
L 709.45031 248.214537 
L 783.235434 227.249493 
L 857.020558 243.680921 
L 930.805682 183.820426 
" style="fill:none;stroke:#00ff00;stroke-linecap:square;stroke-width:3;"/>
    <defs>
     <path d="M 0 -6 
L -1.347084 -1.854102 
L -5.706339 -1.854102 
L -2.179628 0.708204 
L -3.526712 4.854102 
L -0 2.291796 
L 3.526712 4.854102 
L 2.179628 0.708204 
L 5.706339 -1.854102 
L 1.347084 -1.854102 
z
" id="m4c7bb7e73f" style="stroke:#00ff00;stroke-linejoin:bevel;"/>
    </defs>
    <g clip-path="url(#pb4e2ab4481)">
     <use style="fill:#00ff00;stroke:#00ff00;stroke-linejoin:bevel;" x="119.169318" xlink:href="#m4c7bb7e73f" y="389.629015"/>
     <use style="fill:#00ff00;stroke:#00ff00;stroke-linejoin:bevel;" x="192.954442" xlink:href="#m4c7bb7e73f" y="360.943301"/>
     <use style="fill:#00ff00;stroke:#00ff00;stroke-linejoin:bevel;" x="266.739566" xlink:href="#m4c7bb7e73f" y="349.088355"/>
     <use style="fill:#00ff00;stroke:#00ff00;stroke-linejoin:bevel;" x="340.52469" xlink:href="#m4c7bb7e73f" y="296.913818"/>
     <use style="fill:#00ff00;stroke:#00ff00;stroke-linejoin:bevel;" x="414.309814" xlink:href="#m4c7bb7e73f" y="291.321705"/>
     <use style="fill:#00ff00;stroke:#00ff00;stroke-linejoin:bevel;" x="488.094938" xlink:href="#m4c7bb7e73f" y="275.454349"/>
     <use style="fill:#00ff00;stroke:#00ff00;stroke-linejoin:bevel;" x="561.880062" xlink:href="#m4c7bb7e73f" y="245.5853"/>
     <use style="fill:#00ff00;stroke:#00ff00;stroke-linejoin:bevel;" x="635.665186" xlink:href="#m4c7bb7e73f" y="245.425231"/>
     <use style="fill:#00ff00;stroke:#00ff00;stroke-linejoin:bevel;" x="709.45031" xlink:href="#m4c7bb7e73f" y="248.214537"/>
     <use style="fill:#00ff00;stroke:#00ff00;stroke-linejoin:bevel;" x="783.235434" xlink:href="#m4c7bb7e73f" y="227.249493"/>
     <use style="fill:#00ff00;stroke:#00ff00;stroke-linejoin:bevel;" x="857.020558" xlink:href="#m4c7bb7e73f" y="243.680921"/>
     <use style="fill:#00ff00;stroke:#00ff00;stroke-linejoin:bevel;" x="930.805682" xlink:href="#m4c7bb7e73f" y="183.820426"/>
    </g>
   </g>
   <g id="line2d_48">
    <path clip-path="url(#pb4e2ab4481)" d="M 119.169318 400.066264 
L 192.954442 335.093427 
L 266.739566 306.64879 
L 340.52469 245.506216 
L 414.309814 229.502013 
L 488.094938 242.708723 
L 561.880062 195.742232 
L 635.665186 188.791876 
L 709.45031 214.658288 
L 783.235434 178.344952 
L 857.020558 197.957919 
L 930.805682 166.121433 
" style="fill:none;stroke:#000000;stroke-linecap:square;stroke-width:3;"/>
    <defs>
     <path d="M 0 0 
L 6 0 
M 0 0 
L -3 -4.8 
M 0 0 
L -3 4.8 
" id="mc645f4e2ef" style="stroke:#000000;"/>
    </defs>
    <g clip-path="url(#pb4e2ab4481)">
     <use style="stroke:#000000;" x="119.169318" xlink:href="#mc645f4e2ef" y="400.066264"/>
     <use style="stroke:#000000;" x="192.954442" xlink:href="#mc645f4e2ef" y="335.093427"/>
     <use style="stroke:#000000;" x="266.739566" xlink:href="#mc645f4e2ef" y="306.64879"/>
     <use style="stroke:#000000;" x="340.52469" xlink:href="#mc645f4e2ef" y="245.506216"/>
     <use style="stroke:#000000;" x="414.309814" xlink:href="#mc645f4e2ef" y="229.502013"/>
     <use style="stroke:#000000;" x="488.094938" xlink:href="#mc645f4e2ef" y="242.708723"/>
     <use style="stroke:#000000;" x="561.880062" xlink:href="#mc645f4e2ef" y="195.742232"/>
     <use style="stroke:#000000;" x="635.665186" xlink:href="#mc645f4e2ef" y="188.791876"/>
     <use style="stroke:#000000;" x="709.45031" xlink:href="#mc645f4e2ef" y="214.658288"/>
     <use style="stroke:#000000;" x="783.235434" xlink:href="#mc645f4e2ef" y="178.344952"/>
     <use style="stroke:#000000;" x="857.020558" xlink:href="#mc645f4e2ef" y="197.957919"/>
     <use style="stroke:#000000;" x="930.805682" xlink:href="#mc645f4e2ef" y="166.121433"/>
    </g>
   </g>
   <g id="line2d_49">
    <path clip-path="url(#pb4e2ab4481)" d="M 119.169318 378.329975 
L 192.954442 294.990362 
L 266.739566 257.625074 
L 340.52469 205.437694 
L 414.309814 192.874135 
L 488.094938 202.122869 
L 561.880062 173.739887 
L 635.665186 160.171991 
L 709.45031 168.096434 
L 783.235434 158.177353 
L 857.020558 162.550639 
L 930.805682 136.573047 
" style="fill:none;stroke:#008000;stroke-linecap:square;stroke-width:3;"/>
    <defs>
     <path d="M 0 -6 
L -6 6 
L 6 6 
z
" id="m8ddf7de954" style="stroke:#008000;stroke-linejoin:miter;"/>
    </defs>
    <g clip-path="url(#pb4e2ab4481)">
     <use style="fill:#008000;stroke:#008000;stroke-linejoin:miter;" x="119.169318" xlink:href="#m8ddf7de954" y="378.329975"/>
     <use style="fill:#008000;stroke:#008000;stroke-linejoin:miter;" x="192.954442" xlink:href="#m8ddf7de954" y="294.990362"/>
     <use style="fill:#008000;stroke:#008000;stroke-linejoin:miter;" x="266.739566" xlink:href="#m8ddf7de954" y="257.625074"/>
     <use style="fill:#008000;stroke:#008000;stroke-linejoin:miter;" x="340.52469" xlink:href="#m8ddf7de954" y="205.437694"/>
     <use style="fill:#008000;stroke:#008000;stroke-linejoin:miter;" x="414.309814" xlink:href="#m8ddf7de954" y="192.874135"/>
     <use style="fill:#008000;stroke:#008000;stroke-linejoin:miter;" x="488.094938" xlink:href="#m8ddf7de954" y="202.122869"/>
     <use style="fill:#008000;stroke:#008000;stroke-linejoin:miter;" x="561.880062" xlink:href="#m8ddf7de954" y="173.739887"/>
     <use style="fill:#008000;stroke:#008000;stroke-linejoin:miter;" x="635.665186" xlink:href="#m8ddf7de954" y="160.171991"/>
     <use style="fill:#008000;stroke:#008000;stroke-linejoin:miter;" x="709.45031" xlink:href="#m8ddf7de954" y="168.096434"/>
     <use style="fill:#008000;stroke:#008000;stroke-linejoin:miter;" x="783.235434" xlink:href="#m8ddf7de954" y="158.177353"/>
     <use style="fill:#008000;stroke:#008000;stroke-linejoin:miter;" x="857.020558" xlink:href="#m8ddf7de954" y="162.550639"/>
     <use style="fill:#008000;stroke:#008000;stroke-linejoin:miter;" x="930.805682" xlink:href="#m8ddf7de954" y="136.573047"/>
    </g>
   </g>
   <g id="patch_3">
    <path d="M 78.5875 548.485875 
L 78.5875 113.605875 
" style="fill:none;stroke:#000000;stroke-linecap:square;stroke-linejoin:miter;stroke-width:0.8;"/>
   </g>
   <g id="patch_4">
    <path d="M 971.3875 548.485875 
L 971.3875 113.605875 
" style="fill:none;stroke:#000000;stroke-linecap:square;stroke-linejoin:miter;stroke-width:0.8;"/>
   </g>
   <g id="patch_5">
    <path d="M 78.5875 548.485875 
L 971.3875 548.485875 
" style="fill:none;stroke:#000000;stroke-linecap:square;stroke-linejoin:miter;stroke-width:0.8;"/>
   </g>
   <g id="patch_6">
    <path d="M 78.5875 113.605875 
L 971.3875 113.605875 
" style="fill:none;stroke:#000000;stroke-linecap:square;stroke-linejoin:miter;stroke-width:0.8;"/>
   </g>
   <g id="legend_1">
    <g id="patch_7">
     <path d="M 68.7955 91.861875 
L 994.889875 91.861875 
Q 998.489875 91.861875 998.489875 88.261875 
L 998.489875 10.8 
Q 998.489875 7.2 994.889875 7.2 
L 68.7955 7.2 
Q 65.1955 7.2 65.1955 10.8 
L 65.1955 88.261875 
Q 65.1955 91.861875 68.7955 91.861875 
z
" style="fill:#ffffff;opacity:0.8;stroke:#cccccc;stroke-linejoin:miter;"/>
    </g>
    <g id="line2d_50">
     <path d="M 72.3955 21.777187 
L 108.3955 21.777187 
" style="fill:none;stroke:#6495ed;stroke-linecap:square;stroke-width:3;"/>
    </g>
    <g id="line2d_51">
     <g>
      <use style="fill:#6495ed;stroke:#6495ed;stroke-linejoin:miter;" x="90.3955" xlink:href="#m1764ee5fc0" y="21.777187"/>
     </g>
    </g>
    <g id="text_23">
     <!-- Replay 100 (random) -->
     <g transform="translate(122.7955 28.077187)scale(0.18 -0.18)">
      <defs>
       <path d="M 2841 2188 
Q 3044 2119 3236 1894 
Q 3428 1669 3622 1275 
L 4263 0 
L 3584 0 
L 2988 1197 
Q 2756 1666 2539 1819 
Q 2322 1972 1947 1972 
L 1259 1972 
L 1259 0 
L 628 0 
L 628 4666 
L 2053 4666 
Q 2853 4666 3247 4331 
Q 3641 3997 3641 3322 
Q 3641 2881 3436 2590 
Q 3231 2300 2841 2188 
z
M 1259 4147 
L 1259 2491 
L 2053 2491 
Q 2509 2491 2742 2702 
Q 2975 2913 2975 3322 
Q 2975 3731 2742 3939 
Q 2509 4147 2053 4147 
L 1259 4147 
z
" id="DejaVuSans-52" transform="scale(0.015625)"/>
       <path d="M 1984 4856 
Q 1566 4138 1362 3434 
Q 1159 2731 1159 2009 
Q 1159 1288 1364 580 
Q 1569 -128 1984 -844 
L 1484 -844 
Q 1016 -109 783 600 
Q 550 1309 550 2009 
Q 550 2706 781 3412 
Q 1013 4119 1484 4856 
L 1984 4856 
z
" id="DejaVuSans-28" transform="scale(0.015625)"/>
       <path d="M 2906 2969 
L 2906 4863 
L 3481 4863 
L 3481 0 
L 2906 0 
L 2906 525 
Q 2725 213 2448 61 
Q 2172 -91 1784 -91 
Q 1150 -91 751 415 
Q 353 922 353 1747 
Q 353 2572 751 3078 
Q 1150 3584 1784 3584 
Q 2172 3584 2448 3432 
Q 2725 3281 2906 2969 
z
M 947 1747 
Q 947 1113 1208 752 
Q 1469 391 1925 391 
Q 2381 391 2643 752 
Q 2906 1113 2906 1747 
Q 2906 2381 2643 2742 
Q 2381 3103 1925 3103 
Q 1469 3103 1208 2742 
Q 947 2381 947 1747 
z
" id="DejaVuSans-64" transform="scale(0.015625)"/>
       <path d="M 513 4856 
L 1013 4856 
Q 1481 4119 1714 3412 
Q 1947 2706 1947 2009 
Q 1947 1309 1714 600 
Q 1481 -109 1013 -844 
L 513 -844 
Q 928 -128 1133 580 
Q 1338 1288 1338 2009 
Q 1338 2731 1133 3434 
Q 928 4138 513 4856 
z
" id="DejaVuSans-29" transform="scale(0.015625)"/>
      </defs>
      <use xlink:href="#DejaVuSans-52"/>
      <use x="64.982422" xlink:href="#DejaVuSans-65"/>
      <use x="126.505859" xlink:href="#DejaVuSans-70"/>
      <use x="189.982422" xlink:href="#DejaVuSans-6c"/>
      <use x="217.765625" xlink:href="#DejaVuSans-61"/>
      <use x="279.044922" xlink:href="#DejaVuSans-79"/>
      <use x="338.224609" xlink:href="#DejaVuSans-20"/>
      <use x="370.011719" xlink:href="#DejaVuSans-31"/>
      <use x="433.634766" xlink:href="#DejaVuSans-30"/>
      <use x="497.257812" xlink:href="#DejaVuSans-30"/>
      <use x="560.880859" xlink:href="#DejaVuSans-20"/>
      <use x="592.667969" xlink:href="#DejaVuSans-28"/>
      <use x="631.681641" xlink:href="#DejaVuSans-72"/>
      <use x="672.794922" xlink:href="#DejaVuSans-61"/>
      <use x="734.074219" xlink:href="#DejaVuSans-6e"/>
      <use x="797.453125" xlink:href="#DejaVuSans-64"/>
      <use x="860.929688" xlink:href="#DejaVuSans-6f"/>
      <use x="922.111328" xlink:href="#DejaVuSans-6d"/>
      <use x="1019.523438" xlink:href="#DejaVuSans-29"/>
     </g>
    </g>
    <g id="line2d_52">
     <path d="M 72.3955 48.197812 
L 108.3955 48.197812 
" style="fill:none;stroke:#800080;stroke-linecap:square;stroke-width:3;"/>
    </g>
    <g id="line2d_53">
     <g>
      <use style="fill:#800080;stroke:#800080;" x="90.3955" xlink:href="#m3dfe0249e2" y="48.197812"/>
     </g>
    </g>
    <g id="text_24">
     <!-- Replay 500  (random) -->
     <g transform="translate(122.7955 54.497812)scale(0.18 -0.18)">
      <use xlink:href="#DejaVuSans-52"/>
      <use x="64.982422" xlink:href="#DejaVuSans-65"/>
      <use x="126.505859" xlink:href="#DejaVuSans-70"/>
      <use x="189.982422" xlink:href="#DejaVuSans-6c"/>
      <use x="217.765625" xlink:href="#DejaVuSans-61"/>
      <use x="279.044922" xlink:href="#DejaVuSans-79"/>
      <use x="338.224609" xlink:href="#DejaVuSans-20"/>
      <use x="370.011719" xlink:href="#DejaVuSans-35"/>
      <use x="433.634766" xlink:href="#DejaVuSans-30"/>
      <use x="497.257812" xlink:href="#DejaVuSans-30"/>
      <use x="560.880859" xlink:href="#DejaVuSans-20"/>
      <use x="592.667969" xlink:href="#DejaVuSans-20"/>
      <use x="624.455078" xlink:href="#DejaVuSans-28"/>
      <use x="663.46875" xlink:href="#DejaVuSans-72"/>
      <use x="704.582031" xlink:href="#DejaVuSans-61"/>
      <use x="765.861328" xlink:href="#DejaVuSans-6e"/>
      <use x="829.240234" xlink:href="#DejaVuSans-64"/>
      <use x="892.716797" xlink:href="#DejaVuSans-6f"/>
      <use x="953.898438" xlink:href="#DejaVuSans-6d"/>
      <use x="1051.310547" xlink:href="#DejaVuSans-29"/>
     </g>
    </g>
    <g id="line2d_54">
     <path d="M 72.3955 74.618437 
L 108.3955 74.618437 
" style="fill:none;stroke:#0000ff;stroke-linecap:square;stroke-width:3;"/>
    </g>
    <g id="line2d_55">
     <g>
      <use style="fill:#0000ff;stroke:#0000ff;stroke-linejoin:miter;" x="90.3955" xlink:href="#m3103535d81" y="74.618437"/>
     </g>
    </g>
    <g id="text_25">
     <!-- Replay 1K (random) -->
     <g transform="translate(122.7955 80.918437)scale(0.18 -0.18)">
      <defs>
       <path d="M 628 4666 
L 1259 4666 
L 1259 2694 
L 3353 4666 
L 4166 4666 
L 1850 2491 
L 4331 0 
L 3500 0 
L 1259 2247 
L 1259 0 
L 628 0 
L 628 4666 
z
" id="DejaVuSans-4b" transform="scale(0.015625)"/>
      </defs>
      <use xlink:href="#DejaVuSans-52"/>
      <use x="64.982422" xlink:href="#DejaVuSans-65"/>
      <use x="126.505859" xlink:href="#DejaVuSans-70"/>
      <use x="189.982422" xlink:href="#DejaVuSans-6c"/>
      <use x="217.765625" xlink:href="#DejaVuSans-61"/>
      <use x="279.044922" xlink:href="#DejaVuSans-79"/>
      <use x="338.224609" xlink:href="#DejaVuSans-20"/>
      <use x="370.011719" xlink:href="#DejaVuSans-31"/>
      <use x="433.634766" xlink:href="#DejaVuSans-4b"/>
      <use x="499.210938" xlink:href="#DejaVuSans-20"/>
      <use x="530.998047" xlink:href="#DejaVuSans-28"/>
      <use x="570.011719" xlink:href="#DejaVuSans-72"/>
      <use x="611.125" xlink:href="#DejaVuSans-61"/>
      <use x="672.404297" xlink:href="#DejaVuSans-6e"/>
      <use x="735.783203" xlink:href="#DejaVuSans-64"/>
      <use x="799.259766" xlink:href="#DejaVuSans-6f"/>
      <use x="860.441406" xlink:href="#DejaVuSans-6d"/>
      <use x="957.853516" xlink:href="#DejaVuSans-29"/>
     </g>
    </g>
    <g id="line2d_56">
     <path d="M 355.057375 21.777187 
L 391.057375 21.777187 
" style="fill:none;stroke:#ee82ee;stroke-linecap:square;stroke-width:3;"/>
    </g>
    <g id="line2d_57">
     <g>
      <use style="fill:#ee82ee;stroke:#ee82ee;stroke-linejoin:miter;" x="373.057375" xlink:href="#m8a38356ec7" y="21.777187"/>
     </g>
    </g>
    <g id="text_26">
     <!-- Replay 100 (first) -->
     <g transform="translate(405.457375 28.077187)scale(0.18 -0.18)">
      <defs>
       <path d="M 2375 4863 
L 2375 4384 
L 1825 4384 
Q 1516 4384 1395 4259 
Q 1275 4134 1275 3809 
L 1275 3500 
L 2222 3500 
L 2222 3053 
L 1275 3053 
L 1275 0 
L 697 0 
L 697 3053 
L 147 3053 
L 147 3500 
L 697 3500 
L 697 3744 
Q 697 4328 969 4595 
Q 1241 4863 1831 4863 
L 2375 4863 
z
" id="DejaVuSans-66" transform="scale(0.015625)"/>
       <path d="M 603 3500 
L 1178 3500 
L 1178 0 
L 603 0 
L 603 3500 
z
M 603 4863 
L 1178 4863 
L 1178 4134 
L 603 4134 
L 603 4863 
z
" id="DejaVuSans-69" transform="scale(0.015625)"/>
      </defs>
      <use xlink:href="#DejaVuSans-52"/>
      <use x="64.982422" xlink:href="#DejaVuSans-65"/>
      <use x="126.505859" xlink:href="#DejaVuSans-70"/>
      <use x="189.982422" xlink:href="#DejaVuSans-6c"/>
      <use x="217.765625" xlink:href="#DejaVuSans-61"/>
      <use x="279.044922" xlink:href="#DejaVuSans-79"/>
      <use x="338.224609" xlink:href="#DejaVuSans-20"/>
      <use x="370.011719" xlink:href="#DejaVuSans-31"/>
      <use x="433.634766" xlink:href="#DejaVuSans-30"/>
      <use x="497.257812" xlink:href="#DejaVuSans-30"/>
      <use x="560.880859" xlink:href="#DejaVuSans-20"/>
      <use x="592.667969" xlink:href="#DejaVuSans-28"/>
      <use x="631.681641" xlink:href="#DejaVuSans-66"/>
      <use x="666.886719" xlink:href="#DejaVuSans-69"/>
      <use x="694.669922" xlink:href="#DejaVuSans-72"/>
      <use x="735.783203" xlink:href="#DejaVuSans-73"/>
      <use x="787.882812" xlink:href="#DejaVuSans-74"/>
      <use x="827.091797" xlink:href="#DejaVuSans-29"/>
     </g>
    </g>
    <g id="line2d_58">
     <path d="M 355.057375 48.197812 
L 391.057375 48.197812 
" style="fill:none;stroke:#ffff00;stroke-linecap:square;stroke-width:3;"/>
    </g>
    <g id="line2d_59">
     <g>
      <use style="fill:#ffff00;stroke:#ffff00;" x="373.057375" xlink:href="#m3abd80e5f9" y="48.197812"/>
     </g>
    </g>
    <g id="text_27">
     <!-- Replay 500  (first) -->
     <g transform="translate(405.457375 54.497812)scale(0.18 -0.18)">
      <use xlink:href="#DejaVuSans-52"/>
      <use x="64.982422" xlink:href="#DejaVuSans-65"/>
      <use x="126.505859" xlink:href="#DejaVuSans-70"/>
      <use x="189.982422" xlink:href="#DejaVuSans-6c"/>
      <use x="217.765625" xlink:href="#DejaVuSans-61"/>
      <use x="279.044922" xlink:href="#DejaVuSans-79"/>
      <use x="338.224609" xlink:href="#DejaVuSans-20"/>
      <use x="370.011719" xlink:href="#DejaVuSans-35"/>
      <use x="433.634766" xlink:href="#DejaVuSans-30"/>
      <use x="497.257812" xlink:href="#DejaVuSans-30"/>
      <use x="560.880859" xlink:href="#DejaVuSans-20"/>
      <use x="592.667969" xlink:href="#DejaVuSans-20"/>
      <use x="624.455078" xlink:href="#DejaVuSans-28"/>
      <use x="663.46875" xlink:href="#DejaVuSans-66"/>
      <use x="698.673828" xlink:href="#DejaVuSans-69"/>
      <use x="726.457031" xlink:href="#DejaVuSans-72"/>
      <use x="767.570312" xlink:href="#DejaVuSans-73"/>
      <use x="819.669922" xlink:href="#DejaVuSans-74"/>
      <use x="858.878906" xlink:href="#DejaVuSans-29"/>
     </g>
    </g>
    <g id="line2d_60">
     <path d="M 603.077688 21.777187 
L 639.077688 21.777187 
" style="fill:none;stroke:#ff0000;stroke-linecap:square;stroke-width:3;"/>
    </g>
    <g id="line2d_61">
     <g>
      <use style="fill:#ff0000;stroke:#ff0000;stroke-linejoin:miter;" x="621.077688" xlink:href="#m7fa5d101ac" y="21.777187"/>
     </g>
    </g>
    <g id="text_28">
     <!-- Replay 1K (first) -->
     <g transform="translate(653.477688 28.077187)scale(0.18 -0.18)">
      <use xlink:href="#DejaVuSans-52"/>
      <use x="64.982422" xlink:href="#DejaVuSans-65"/>
      <use x="126.505859" xlink:href="#DejaVuSans-70"/>
      <use x="189.982422" xlink:href="#DejaVuSans-6c"/>
      <use x="217.765625" xlink:href="#DejaVuSans-61"/>
      <use x="279.044922" xlink:href="#DejaVuSans-79"/>
      <use x="338.224609" xlink:href="#DejaVuSans-20"/>
      <use x="370.011719" xlink:href="#DejaVuSans-31"/>
      <use x="433.634766" xlink:href="#DejaVuSans-4b"/>
      <use x="499.210938" xlink:href="#DejaVuSans-20"/>
      <use x="530.998047" xlink:href="#DejaVuSans-28"/>
      <use x="570.011719" xlink:href="#DejaVuSans-66"/>
      <use x="605.216797" xlink:href="#DejaVuSans-69"/>
      <use x="633" xlink:href="#DejaVuSans-72"/>
      <use x="674.113281" xlink:href="#DejaVuSans-73"/>
      <use x="726.212891" xlink:href="#DejaVuSans-74"/>
      <use x="765.421875" xlink:href="#DejaVuSans-29"/>
     </g>
    </g>
    <g id="line2d_62">
     <path d="M 603.077688 48.197812 
L 639.077688 48.197812 
" style="fill:none;stroke:#00ff00;stroke-linecap:square;stroke-width:3;"/>
    </g>
    <g id="line2d_63">
     <g>
      <use style="fill:#00ff00;stroke:#00ff00;stroke-linejoin:bevel;" x="621.077688" xlink:href="#m4c7bb7e73f" y="48.197812"/>
     </g>
    </g>
    <g id="text_29">
     <!-- Replay 20% -->
     <g transform="translate(653.477688 54.497812)scale(0.18 -0.18)">
      <defs>
       <path d="M 4653 2053 
Q 4381 2053 4226 1822 
Q 4072 1591 4072 1178 
Q 4072 772 4226 539 
Q 4381 306 4653 306 
Q 4919 306 5073 539 
Q 5228 772 5228 1178 
Q 5228 1588 5073 1820 
Q 4919 2053 4653 2053 
z
M 4653 2450 
Q 5147 2450 5437 2106 
Q 5728 1763 5728 1178 
Q 5728 594 5436 251 
Q 5144 -91 4653 -91 
Q 4153 -91 3862 251 
Q 3572 594 3572 1178 
Q 3572 1766 3864 2108 
Q 4156 2450 4653 2450 
z
M 1428 4353 
Q 1159 4353 1004 4120 
Q 850 3888 850 3481 
Q 850 3069 1003 2837 
Q 1156 2606 1428 2606 
Q 1700 2606 1854 2837 
Q 2009 3069 2009 3481 
Q 2009 3884 1853 4118 
Q 1697 4353 1428 4353 
z
M 4250 4750 
L 4750 4750 
L 1831 -91 
L 1331 -91 
L 4250 4750 
z
M 1428 4750 
Q 1922 4750 2215 4408 
Q 2509 4066 2509 3481 
Q 2509 2891 2217 2550 
Q 1925 2209 1428 2209 
Q 931 2209 642 2551 
Q 353 2894 353 3481 
Q 353 4063 643 4406 
Q 934 4750 1428 4750 
z
" id="DejaVuSans-25" transform="scale(0.015625)"/>
      </defs>
      <use xlink:href="#DejaVuSans-52"/>
      <use x="64.982422" xlink:href="#DejaVuSans-65"/>
      <use x="126.505859" xlink:href="#DejaVuSans-70"/>
      <use x="189.982422" xlink:href="#DejaVuSans-6c"/>
      <use x="217.765625" xlink:href="#DejaVuSans-61"/>
      <use x="279.044922" xlink:href="#DejaVuSans-79"/>
      <use x="338.224609" xlink:href="#DejaVuSans-20"/>
      <use x="370.011719" xlink:href="#DejaVuSans-32"/>
      <use x="433.634766" xlink:href="#DejaVuSans-30"/>
      <use x="497.257812" xlink:href="#DejaVuSans-25"/>
     </g>
    </g>
    <g id="line2d_64">
     <path d="M 834.276438 21.777187 
L 870.276438 21.777187 
" style="fill:none;stroke:#000000;stroke-linecap:square;stroke-width:3;"/>
    </g>
    <g id="line2d_65">
     <g>
      <use style="stroke:#000000;" x="852.276438" xlink:href="#mc645f4e2ef" y="21.777187"/>
     </g>
    </g>
    <g id="text_30">
     <!-- Replay 50% -->
     <g transform="translate(884.676438 28.077187)scale(0.18 -0.18)">
      <use xlink:href="#DejaVuSans-52"/>
      <use x="64.982422" xlink:href="#DejaVuSans-65"/>
      <use x="126.505859" xlink:href="#DejaVuSans-70"/>
      <use x="189.982422" xlink:href="#DejaVuSans-6c"/>
      <use x="217.765625" xlink:href="#DejaVuSans-61"/>
      <use x="279.044922" xlink:href="#DejaVuSans-79"/>
      <use x="338.224609" xlink:href="#DejaVuSans-20"/>
      <use x="370.011719" xlink:href="#DejaVuSans-35"/>
      <use x="433.634766" xlink:href="#DejaVuSans-30"/>
      <use x="497.257812" xlink:href="#DejaVuSans-25"/>
     </g>
    </g>
    <g id="line2d_66">
     <path d="M 834.276438 48.197812 
L 870.276438 48.197812 
" style="fill:none;stroke:#008000;stroke-linecap:square;stroke-width:3;"/>
    </g>
    <g id="line2d_67">
     <g>
      <use style="fill:#008000;stroke:#008000;stroke-linejoin:miter;" x="852.276438" xlink:href="#m8ddf7de954" y="48.197812"/>
     </g>
    </g>
    <g id="text_31">
     <!-- Joint -->
     <g transform="translate(884.676438 54.497812)scale(0.18 -0.18)">
      <use xlink:href="#DejaVuSans-4a"/>
      <use x="29.492188" xlink:href="#DejaVuSans-6f"/>
      <use x="90.673828" xlink:href="#DejaVuSans-69"/>
      <use x="118.457031" xlink:href="#DejaVuSans-6e"/>
      <use x="181.835938" xlink:href="#DejaVuSans-74"/>
     </g>
    </g>
   </g>
  </g>
 </g>
 <defs>
  <clipPath id="pb4e2ab4481">
   <rect height="434.88" width="892.8" x="78.5875" y="113.605875"/>
  </clipPath>
 </defs>
</svg>
