<?xml version="1.0" encoding="utf-8" standalone="no"?>
<!DOCTYPE svg PUBLIC "-//W3C//DTD SVG 1.1//EN"
  "http://www.w3.org/Graphics/SVG/1.1/DTD/svg11.dtd">
<svg height="601.898375pt" version="1.1" viewBox="0 0 978.5875 601.898375" width="978.5875pt" xmlns="http://www.w3.org/2000/svg" xmlns:xlink="http://www.w3.org/1999/xlink">
 <metadata>
  <rdf:RDF xmlns:cc="http://creativecommons.org/ns#" xmlns:dc="http://purl.org/dc/elements/1.1/" xmlns:rdf="http://www.w3.org/1999/02/22-rdf-syntax-ns#">
   <cc:Work>
    <dc:type rdf:resource="http://purl.org/dc/dcmitype/StillImage"/>
    <dc:date>2022-10-16T19:06:22.077970</dc:date>
    <dc:format>image/svg+xml</dc:format>
    <dc:creator>
     <cc:Agent>
      <dc:title>Matplotlib v3.4.3, https://matplotlib.org/</dc:title>
     </cc:Agent>
    </dc:creator>
   </cc:Work>
  </rdf:RDF>
 </metadata>
 <defs>
  <style type="text/css">*{stroke-linecap:butt;stroke-linejoin:round;}</style>
 </defs>
 <g id="figure_1">
  <g id="patch_1">
   <path d="M 0 601.898375 
L 978.5875 601.898375 
L 978.5875 0 
L 0 0 
z
" style="fill:none;"/>
  </g>
  <g id="axes_1">
   <g id="patch_2">
    <path d="M 78.5875 548.485875 
L 971.3875 548.485875 
L 971.3875 113.605875 
L 78.5875 113.605875 
z
" style="fill:none;"/>
   </g>
   <g id="PolyCollection_1">
    <defs>
     <path d="M 119.169318 -138.232794 
L 119.169318 -117.495856 
L 192.954442 -228.067326 
L 266.739566 -213.453869 
L 340.52469 -293.376018 
L 414.309814 -282.162462 
L 488.094938 -283.022286 
L 561.880062 -344.32433 
L 635.665186 -341.354778 
L 709.45031 -317.398284 
L 783.235434 -374.537804 
L 857.020558 -355.609421 
L 930.805682 -406.909234 
L 930.805682 -414.069104 
L 930.805682 -414.069104 
L 857.020558 -366.756289 
L 783.235434 -385.074357 
L 709.45031 -337.815504 
L 635.665186 -347.68802 
L 561.880062 -350.267539 
L 488.094938 -308.558174 
L 414.309814 -290.952361 
L 340.52469 -303.231613 
L 266.739566 -224.836281 
L 192.954442 -240.952705 
L 119.169318 -138.232794 
z
" id="m7bc3882281" style="stroke:#6495ed;stroke-opacity:0.2;"/>
    </defs>
    <g clip-path="url(#pf87bfaaf97)">
     <use style="fill:#6495ed;fill-opacity:0.2;stroke:#6495ed;stroke-opacity:0.2;" x="0" xlink:href="#m7bc3882281" y="601.898375"/>
    </g>
   </g>
   <g id="PolyCollection_2">
    <defs>
     <path d="M 119.169318 -107.053271 
L 119.169318 -85.422217 
L 192.954442 -262.65094 
L 266.739566 -256.89669 
L 340.52469 -322.468256 
L 414.309814 -337.857323 
L 488.094938 -331.847665 
L 561.880062 -398.491938 
L 635.665186 -405.127581 
L 709.45031 -391.162999 
L 783.235434 -436.502852 
L 857.020558 -380.416661 
L 930.805682 -434.741773 
L 930.805682 -454.43647 
L 930.805682 -454.43647 
L 857.020558 -400.493708 
L 783.235434 -444.507562 
L 709.45031 -409.510545 
L 635.665186 -413.241849 
L 561.880062 -405.996745 
L 488.094938 -356.611551 
L 414.309814 -347.159226 
L 340.52469 -331.993976 
L 266.739566 -268.05796 
L 192.954442 -276.573592 
L 119.169318 -107.053271 
z
" id="m6759ccf718" style="stroke:#800080;stroke-opacity:0.2;"/>
    </defs>
    <g clip-path="url(#pf87bfaaf97)">
     <use style="fill:#800080;fill-opacity:0.2;stroke:#800080;stroke-opacity:0.2;" x="0" xlink:href="#m6759ccf718" y="601.898375"/>
    </g>
   </g>
   <g id="PolyCollection_3">
    <defs>
     <path d="M 119.169318 -135.947357 
L 119.169318 -108.244013 
L 192.954442 -249.489893 
L 266.739566 -276.86291 
L 340.52469 -344.985672 
L 414.309814 -374.305638 
L 488.094938 -365.038521 
L 561.880062 -414.801151 
L 635.665186 -428.733547 
L 709.45031 -384.971582 
L 783.235434 -426.247155 
L 857.020558 -331.669488 
L 930.805682 -456.057479 
L 930.805682 -468.525227 
L 930.805682 -468.525227 
L 857.020558 -394.028251 
L 783.235434 -446.043961 
L 709.45031 -413.627038 
L 635.665186 -436.634817 
L 561.880062 -428.368009 
L 488.094938 -389.80907 
L 414.309814 -382.116558 
L 340.52469 -355.157664 
L 266.739566 -287.846861 
L 192.954442 -267.499132 
L 119.169318 -135.947357 
z
" id="md7186b6bd0" style="stroke:#0000ff;stroke-opacity:0.2;"/>
    </defs>
    <g clip-path="url(#pf87bfaaf97)">
     <use style="fill:#0000ff;fill-opacity:0.2;stroke:#0000ff;stroke-opacity:0.2;" x="0" xlink:href="#md7186b6bd0" y="601.898375"/>
    </g>
   </g>
   <g id="PolyCollection_4">
    <defs>
     <path d="M 119.169318 -146.586853 
L 119.169318 -112.679896 
L 192.954442 -227.076944 
L 266.739566 -197.484379 
L 340.52469 -254.153424 
L 414.309814 -227.469739 
L 488.094938 -235.125697 
L 561.880062 -291.060178 
L 635.665186 -303.193575 
L 709.45031 -206.683324 
L 783.235434 -335.022827 
L 857.020558 -293.294311 
L 930.805682 -379.812473 
L 930.805682 -397.541497 
L 930.805682 -397.541497 
L 857.020558 -321.240548 
L 783.235434 -363.026834 
L 709.45031 -288.762986 
L 635.665186 -323.693145 
L 561.880062 -317.999256 
L 488.094938 -258.323585 
L 414.309814 -261.376108 
L 340.52469 -281.69206 
L 266.739566 -220.63515 
L 192.954442 -247.488752 
L 119.169318 -146.586853 
z
" id="mcfdbf2f4f7" style="stroke:#ee82ee;stroke-opacity:0.2;"/>
    </defs>
    <g clip-path="url(#pf87bfaaf97)">
     <use style="fill:#ee82ee;fill-opacity:0.2;stroke:#ee82ee;stroke-opacity:0.2;" x="0" xlink:href="#mcfdbf2f4f7" y="601.898375"/>
    </g>
   </g>
   <g id="PolyCollection_5">
    <defs>
     <path d="M 119.169318 -112.812633 
L 119.169318 -75.076809 
L 192.954442 -255.336492 
L 266.739566 -252.661294 
L 340.52469 -320.679459 
L 414.309814 -334.450578 
L 488.094938 -332.587069 
L 561.880062 -399.380681 
L 635.665186 -420.272749 
L 709.45031 -358.984036 
L 783.235434 -424.242528 
L 857.020558 -338.110152 
L 930.805682 -442.893258 
L 930.805682 -450.480807 
L 930.805682 -450.480807 
L 857.020558 -371.843537 
L 783.235434 -446.280644 
L 709.45031 -406.33275 
L 635.665186 -424.742394 
L 561.880062 -405.842122 
L 488.094938 -365.020183 
L 414.309814 -350.563268 
L 340.52469 -331.823117 
L 266.739566 -277.398275 
L 192.954442 -288.825547 
L 119.169318 -112.812633 
z
" id="m85ad0a94b6" style="stroke:#ffff00;stroke-opacity:0.2;"/>
    </defs>
    <g clip-path="url(#pf87bfaaf97)">
     <use style="fill:#ffff00;fill-opacity:0.2;stroke:#ffff00;stroke-opacity:0.2;" x="0" xlink:href="#m85ad0a94b6" y="601.898375"/>
    </g>
   </g>
   <g id="PolyCollection_6">
    <defs>
     <path d="M 119.169318 -128.286575 
L 119.169318 -81.139124 
L 192.954442 -271.245798 
L 266.739566 -278.004283 
L 340.52469 -341.076595 
L 414.309814 -353.158449 
L 488.094938 -356.492457 
L 561.880062 -423.089424 
L 635.665186 -442.203461 
L 709.45031 -412.244949 
L 783.235434 -436.480259 
L 857.020558 -196.631873 
L 930.805682 -449.322885 
L 930.805682 -459.087059 
L 930.805682 -459.087059 
L 857.020558 -386.780506 
L 783.235434 -457.939846 
L 709.45031 -440.344202 
L 635.665186 -451.189619 
L 561.880062 -430.370274 
L 488.094938 -395.381462 
L 414.309814 -367.183525 
L 340.52469 -355.217818 
L 266.739566 -292.672839 
L 192.954442 -292.61332 
L 119.169318 -128.286575 
z
" id="m2704381fad" style="stroke:#ff0000;stroke-opacity:0.2;"/>
    </defs>
    <g clip-path="url(#pf87bfaaf97)">
     <use style="fill:#ff0000;fill-opacity:0.2;stroke:#ff0000;stroke-opacity:0.2;" x="0" xlink:href="#m2704381fad" y="601.898375"/>
    </g>
   </g>
   <g id="PolyCollection_7">
    <defs>
     <path d="M 119.169318 -115.173317 
L 119.169318 -105.943492 
L 192.954442 -201.007396 
L 266.739566 -234.083078 
L 340.52469 -266.65078 
L 414.309814 -227.876838 
L 488.094938 -200.541576 
L 561.880062 -265.35064 
L 635.665186 -275.995605 
L 709.45031 -266.171974 
L 783.235434 -326.028362 
L 857.020558 -251.264549 
L 930.805682 -333.460766 
L 930.805682 -359.494172 
L 930.805682 -359.494172 
L 857.020558 -331.854775 
L 783.235434 -339.70849 
L 709.45031 -323.079801 
L 635.665186 -297.85597 
L 561.880062 -294.828742 
L 488.094938 -248.479221 
L 414.309814 -238.683966 
L 340.52469 -284.821667 
L 266.739566 -238.918501 
L 192.954442 -284.719978 
L 119.169318 -115.173317 
z
" id="m6a27ed290e" style="stroke:#00ff00;stroke-opacity:0.2;"/>
    </defs>
    <g clip-path="url(#pf87bfaaf97)">
     <use style="fill:#00ff00;fill-opacity:0.2;stroke:#00ff00;stroke-opacity:0.2;" x="0" xlink:href="#m6a27ed290e" y="601.898375"/>
    </g>
   </g>
   <g id="PolyCollection_8">
    <defs>
     <path d="M 119.169318 -106.095166 
L 119.169318 -73.179773 
L 192.954442 -279.073596 
L 266.739566 -272.799034 
L 340.52469 -351.219258 
L 414.309814 -326.245777 
L 488.094938 -318.982624 
L 561.880062 -296.387764 
L 635.665186 -357.045391 
L 709.45031 -359.729589 
L 783.235434 -380.245128 
L 857.020558 -216.476371 
L 930.805682 -334.195817 
L 930.805682 -395.967842 
L 930.805682 -395.967842 
L 857.020558 -316.764929 
L 783.235434 -403.833489 
L 709.45031 -375.099393 
L 635.665186 -372.87018 
L 561.880062 -354.476978 
L 488.094938 -343.282364 
L 414.309814 -344.159814 
L 340.52469 -359.248446 
L 266.739566 -291.83381 
L 192.954442 -293.320922 
L 119.169318 -106.095166 
z
" id="m8848ceb425" style="stroke:#000000;stroke-opacity:0.2;"/>
    </defs>
    <g clip-path="url(#pf87bfaaf97)">
     <use style="fill-opacity:0.2;stroke:#000000;stroke-opacity:0.2;" x="0" xlink:href="#m8848ceb425" y="601.898375"/>
    </g>
   </g>
   <g id="PolyCollection_9">
    <defs>
     <path d="M 119.169318 -174.060301 
L 119.169318 -141.816038 
L 192.954442 -243.441852 
L 266.739566 -308.789587 
L 340.52469 -372.900771 
L 414.309814 -379.156986 
L 488.094938 -384.266716 
L 561.880062 -387.164403 
L 635.665186 -394.06031 
L 709.45031 -382.273909 
L 783.235434 -422.309128 
L 857.020558 -231.47201 
L 930.805682 -388.761597 
L 930.805682 -408.911129 
L 930.805682 -408.911129 
L 857.020558 -322.107333 
L 783.235434 -438.447472 
L 709.45031 -418.21479 
L 635.665186 -404.287706 
L 561.880062 -400.264347 
L 488.094938 -406.082646 
L 414.309814 -392.612009 
L 340.52469 -384.992946 
L 266.739566 -318.220212 
L 192.954442 -282.007962 
L 119.169318 -174.060301 
z
" id="md663dbd1b8" style="stroke:#008000;stroke-opacity:0.2;"/>
    </defs>
    <g clip-path="url(#pf87bfaaf97)">
     <use style="fill:#008000;fill-opacity:0.2;stroke:#008000;stroke-opacity:0.2;" x="0" xlink:href="#md663dbd1b8" y="601.898375"/>
    </g>
   </g>
   <g id="matplotlib.axis_1">
    <g id="xtick_1">
     <g id="line2d_1">
      <path clip-path="url(#pf87bfaaf97)" d="M 119.169318 548.485875 
L 119.169318 113.605875 
" style="fill:none;stroke:#b0b0b0;stroke-dasharray:3.7,1.6;stroke-dashoffset:0;"/>
     </g>
     <g id="line2d_2">
      <defs>
       <path d="M 0 0 
L 0 -5 
" id="maa1bd4a8c7" style="stroke:#000000;stroke-width:0.8;"/>
      </defs>
      <g>
       <use style="stroke:#000000;stroke-width:0.8;" x="119.169318" xlink:href="#maa1bd4a8c7" y="548.485875"/>
      </g>
     </g>
     <g id="text_1">
      <!-- Jan -->
      <g transform="translate(103.753693 567.18275)scale(0.2 -0.2)">
       <defs>
        <path d="M 628 4666 
L 1259 4666 
L 1259 325 
Q 1259 -519 939 -900 
Q 619 -1281 -91 -1281 
L -331 -1281 
L -331 -750 
L -134 -750 
Q 284 -750 456 -515 
Q 628 -281 628 325 
L 628 4666 
z
" id="DejaVuSans-4a" transform="scale(0.015625)"/>
        <path d="M 2194 1759 
Q 1497 1759 1228 1600 
Q 959 1441 959 1056 
Q 959 750 1161 570 
Q 1363 391 1709 391 
Q 2188 391 2477 730 
Q 2766 1069 2766 1631 
L 2766 1759 
L 2194 1759 
z
M 3341 1997 
L 3341 0 
L 2766 0 
L 2766 531 
Q 2569 213 2275 61 
Q 1981 -91 1556 -91 
Q 1019 -91 701 211 
Q 384 513 384 1019 
Q 384 1609 779 1909 
Q 1175 2209 1959 2209 
L 2766 2209 
L 2766 2266 
Q 2766 2663 2505 2880 
Q 2244 3097 1772 3097 
Q 1472 3097 1187 3025 
Q 903 2953 641 2809 
L 641 3341 
Q 956 3463 1253 3523 
Q 1550 3584 1831 3584 
Q 2591 3584 2966 3190 
Q 3341 2797 3341 1997 
z
" id="DejaVuSans-61" transform="scale(0.015625)"/>
        <path d="M 3513 2113 
L 3513 0 
L 2938 0 
L 2938 2094 
Q 2938 2591 2744 2837 
Q 2550 3084 2163 3084 
Q 1697 3084 1428 2787 
Q 1159 2491 1159 1978 
L 1159 0 
L 581 0 
L 581 3500 
L 1159 3500 
L 1159 2956 
Q 1366 3272 1645 3428 
Q 1925 3584 2291 3584 
Q 2894 3584 3203 3211 
Q 3513 2838 3513 2113 
z
" id="DejaVuSans-6e" transform="scale(0.015625)"/>
       </defs>
       <use xlink:href="#DejaVuSans-4a"/>
       <use x="29.492188" xlink:href="#DejaVuSans-61"/>
       <use x="90.771484" xlink:href="#DejaVuSans-6e"/>
      </g>
     </g>
    </g>
    <g id="xtick_2">
     <g id="line2d_3">
      <path clip-path="url(#pf87bfaaf97)" d="M 192.954442 548.485875 
L 192.954442 113.605875 
" style="fill:none;stroke:#b0b0b0;stroke-dasharray:3.7,1.6;stroke-dashoffset:0;"/>
     </g>
     <g id="line2d_4">
      <g>
       <use style="stroke:#000000;stroke-width:0.8;" x="192.954442" xlink:href="#maa1bd4a8c7" y="548.485875"/>
      </g>
     </g>
     <g id="text_2">
      <!-- Feb -->
      <g transform="translate(175.251317 567.18275)scale(0.2 -0.2)">
       <defs>
        <path d="M 628 4666 
L 3309 4666 
L 3309 4134 
L 1259 4134 
L 1259 2759 
L 3109 2759 
L 3109 2228 
L 1259 2228 
L 1259 0 
L 628 0 
L 628 4666 
z
" id="DejaVuSans-46" transform="scale(0.015625)"/>
        <path d="M 3597 1894 
L 3597 1613 
L 953 1613 
Q 991 1019 1311 708 
Q 1631 397 2203 397 
Q 2534 397 2845 478 
Q 3156 559 3463 722 
L 3463 178 
Q 3153 47 2828 -22 
Q 2503 -91 2169 -91 
Q 1331 -91 842 396 
Q 353 884 353 1716 
Q 353 2575 817 3079 
Q 1281 3584 2069 3584 
Q 2775 3584 3186 3129 
Q 3597 2675 3597 1894 
z
M 3022 2063 
Q 3016 2534 2758 2815 
Q 2500 3097 2075 3097 
Q 1594 3097 1305 2825 
Q 1016 2553 972 2059 
L 3022 2063 
z
" id="DejaVuSans-65" transform="scale(0.015625)"/>
        <path d="M 3116 1747 
Q 3116 2381 2855 2742 
Q 2594 3103 2138 3103 
Q 1681 3103 1420 2742 
Q 1159 2381 1159 1747 
Q 1159 1113 1420 752 
Q 1681 391 2138 391 
Q 2594 391 2855 752 
Q 3116 1113 3116 1747 
z
M 1159 2969 
Q 1341 3281 1617 3432 
Q 1894 3584 2278 3584 
Q 2916 3584 3314 3078 
Q 3713 2572 3713 1747 
Q 3713 922 3314 415 
Q 2916 -91 2278 -91 
Q 1894 -91 1617 61 
Q 1341 213 1159 525 
L 1159 0 
L 581 0 
L 581 4863 
L 1159 4863 
L 1159 2969 
z
" id="DejaVuSans-62" transform="scale(0.015625)"/>
       </defs>
       <use xlink:href="#DejaVuSans-46"/>
       <use x="52.019531" xlink:href="#DejaVuSans-65"/>
       <use x="113.542969" xlink:href="#DejaVuSans-62"/>
      </g>
     </g>
    </g>
    <g id="xtick_3">
     <g id="line2d_5">
      <path clip-path="url(#pf87bfaaf97)" d="M 266.739566 548.485875 
L 266.739566 113.605875 
" style="fill:none;stroke:#b0b0b0;stroke-dasharray:3.7,1.6;stroke-dashoffset:0;"/>
     </g>
     <g id="line2d_6">
      <g>
       <use style="stroke:#000000;stroke-width:0.8;" x="266.739566" xlink:href="#maa1bd4a8c7" y="548.485875"/>
      </g>
     </g>
     <g id="text_3">
      <!-- Mar -->
      <g transform="translate(247.872379 567.18275)scale(0.2 -0.2)">
       <defs>
        <path d="M 628 4666 
L 1569 4666 
L 2759 1491 
L 3956 4666 
L 4897 4666 
L 4897 0 
L 4281 0 
L 4281 4097 
L 3078 897 
L 2444 897 
L 1241 4097 
L 1241 0 
L 628 0 
L 628 4666 
z
" id="DejaVuSans-4d" transform="scale(0.015625)"/>
        <path d="M 2631 2963 
Q 2534 3019 2420 3045 
Q 2306 3072 2169 3072 
Q 1681 3072 1420 2755 
Q 1159 2438 1159 1844 
L 1159 0 
L 581 0 
L 581 3500 
L 1159 3500 
L 1159 2956 
Q 1341 3275 1631 3429 
Q 1922 3584 2338 3584 
Q 2397 3584 2469 3576 
Q 2541 3569 2628 3553 
L 2631 2963 
z
" id="DejaVuSans-72" transform="scale(0.015625)"/>
       </defs>
       <use xlink:href="#DejaVuSans-4d"/>
       <use x="86.279297" xlink:href="#DejaVuSans-61"/>
       <use x="147.558594" xlink:href="#DejaVuSans-72"/>
      </g>
     </g>
    </g>
    <g id="xtick_4">
     <g id="line2d_7">
      <path clip-path="url(#pf87bfaaf97)" d="M 340.52469 548.485875 
L 340.52469 113.605875 
" style="fill:none;stroke:#b0b0b0;stroke-dasharray:3.7,1.6;stroke-dashoffset:0;"/>
     </g>
     <g id="line2d_8">
      <g>
       <use style="stroke:#000000;stroke-width:0.8;" x="340.52469" xlink:href="#maa1bd4a8c7" y="548.485875"/>
      </g>
     </g>
     <g id="text_4">
      <!-- Apr -->
      <g transform="translate(323.22469 567.18275)scale(0.2 -0.2)">
       <defs>
        <path d="M 2188 4044 
L 1331 1722 
L 3047 1722 
L 2188 4044 
z
M 1831 4666 
L 2547 4666 
L 4325 0 
L 3669 0 
L 3244 1197 
L 1141 1197 
L 716 0 
L 50 0 
L 1831 4666 
z
" id="DejaVuSans-41" transform="scale(0.015625)"/>
        <path d="M 1159 525 
L 1159 -1331 
L 581 -1331 
L 581 3500 
L 1159 3500 
L 1159 2969 
Q 1341 3281 1617 3432 
Q 1894 3584 2278 3584 
Q 2916 3584 3314 3078 
Q 3713 2572 3713 1747 
Q 3713 922 3314 415 
Q 2916 -91 2278 -91 
Q 1894 -91 1617 61 
Q 1341 213 1159 525 
z
M 3116 1747 
Q 3116 2381 2855 2742 
Q 2594 3103 2138 3103 
Q 1681 3103 1420 2742 
Q 1159 2381 1159 1747 
Q 1159 1113 1420 752 
Q 1681 391 2138 391 
Q 2594 391 2855 752 
Q 3116 1113 3116 1747 
z
" id="DejaVuSans-70" transform="scale(0.015625)"/>
       </defs>
       <use xlink:href="#DejaVuSans-41"/>
       <use x="68.408203" xlink:href="#DejaVuSans-70"/>
       <use x="131.884766" xlink:href="#DejaVuSans-72"/>
      </g>
     </g>
    </g>
    <g id="xtick_5">
     <g id="line2d_9">
      <path clip-path="url(#pf87bfaaf97)" d="M 414.309814 548.485875 
L 414.309814 113.605875 
" style="fill:none;stroke:#b0b0b0;stroke-dasharray:3.7,1.6;stroke-dashoffset:0;"/>
     </g>
     <g id="line2d_10">
      <g>
       <use style="stroke:#000000;stroke-width:0.8;" x="414.309814" xlink:href="#maa1bd4a8c7" y="548.485875"/>
      </g>
     </g>
     <g id="text_5">
      <!-- May -->
      <g transform="translate(393.634814 567.18275)scale(0.2 -0.2)">
       <defs>
        <path d="M 2059 -325 
Q 1816 -950 1584 -1140 
Q 1353 -1331 966 -1331 
L 506 -1331 
L 506 -850 
L 844 -850 
Q 1081 -850 1212 -737 
Q 1344 -625 1503 -206 
L 1606 56 
L 191 3500 
L 800 3500 
L 1894 763 
L 2988 3500 
L 3597 3500 
L 2059 -325 
z
" id="DejaVuSans-79" transform="scale(0.015625)"/>
       </defs>
       <use xlink:href="#DejaVuSans-4d"/>
       <use x="86.279297" xlink:href="#DejaVuSans-61"/>
       <use x="147.558594" xlink:href="#DejaVuSans-79"/>
      </g>
     </g>
    </g>
    <g id="xtick_6">
     <g id="line2d_11">
      <path clip-path="url(#pf87bfaaf97)" d="M 488.094938 548.485875 
L 488.094938 113.605875 
" style="fill:none;stroke:#b0b0b0;stroke-dasharray:3.7,1.6;stroke-dashoffset:0;"/>
     </g>
     <g id="line2d_12">
      <g>
       <use style="stroke:#000000;stroke-width:0.8;" x="488.094938" xlink:href="#maa1bd4a8c7" y="548.485875"/>
      </g>
     </g>
     <g id="text_6">
      <!-- Jun -->
      <g transform="translate(472.469938 567.18275)scale(0.2 -0.2)">
       <defs>
        <path d="M 544 1381 
L 544 3500 
L 1119 3500 
L 1119 1403 
Q 1119 906 1312 657 
Q 1506 409 1894 409 
Q 2359 409 2629 706 
Q 2900 1003 2900 1516 
L 2900 3500 
L 3475 3500 
L 3475 0 
L 2900 0 
L 2900 538 
Q 2691 219 2414 64 
Q 2138 -91 1772 -91 
Q 1169 -91 856 284 
Q 544 659 544 1381 
z
M 1991 3584 
L 1991 3584 
z
" id="DejaVuSans-75" transform="scale(0.015625)"/>
       </defs>
       <use xlink:href="#DejaVuSans-4a"/>
       <use x="29.492188" xlink:href="#DejaVuSans-75"/>
       <use x="92.871094" xlink:href="#DejaVuSans-6e"/>
      </g>
     </g>
    </g>
    <g id="xtick_7">
     <g id="line2d_13">
      <path clip-path="url(#pf87bfaaf97)" d="M 561.880062 548.485875 
L 561.880062 113.605875 
" style="fill:none;stroke:#b0b0b0;stroke-dasharray:3.7,1.6;stroke-dashoffset:0;"/>
     </g>
     <g id="line2d_14">
      <g>
       <use style="stroke:#000000;stroke-width:0.8;" x="561.880062" xlink:href="#maa1bd4a8c7" y="548.485875"/>
      </g>
     </g>
     <g id="text_7">
      <!-- Jul -->
      <g transform="translate(549.814437 567.18275)scale(0.2 -0.2)">
       <defs>
        <path d="M 603 4863 
L 1178 4863 
L 1178 0 
L 603 0 
L 603 4863 
z
" id="DejaVuSans-6c" transform="scale(0.015625)"/>
       </defs>
       <use xlink:href="#DejaVuSans-4a"/>
       <use x="29.492188" xlink:href="#DejaVuSans-75"/>
       <use x="92.871094" xlink:href="#DejaVuSans-6c"/>
      </g>
     </g>
    </g>
    <g id="xtick_8">
     <g id="line2d_15">
      <path clip-path="url(#pf87bfaaf97)" d="M 635.665186 548.485875 
L 635.665186 113.605875 
" style="fill:none;stroke:#b0b0b0;stroke-dasharray:3.7,1.6;stroke-dashoffset:0;"/>
     </g>
     <g id="line2d_16">
      <g>
       <use style="stroke:#000000;stroke-width:0.8;" x="635.665186" xlink:href="#maa1bd4a8c7" y="548.485875"/>
      </g>
     </g>
     <g id="text_8">
      <!-- Aug -->
      <g transform="translate(616.138623 567.18275)scale(0.2 -0.2)">
       <defs>
        <path d="M 2906 1791 
Q 2906 2416 2648 2759 
Q 2391 3103 1925 3103 
Q 1463 3103 1205 2759 
Q 947 2416 947 1791 
Q 947 1169 1205 825 
Q 1463 481 1925 481 
Q 2391 481 2648 825 
Q 2906 1169 2906 1791 
z
M 3481 434 
Q 3481 -459 3084 -895 
Q 2688 -1331 1869 -1331 
Q 1566 -1331 1297 -1286 
Q 1028 -1241 775 -1147 
L 775 -588 
Q 1028 -725 1275 -790 
Q 1522 -856 1778 -856 
Q 2344 -856 2625 -561 
Q 2906 -266 2906 331 
L 2906 616 
Q 2728 306 2450 153 
Q 2172 0 1784 0 
Q 1141 0 747 490 
Q 353 981 353 1791 
Q 353 2603 747 3093 
Q 1141 3584 1784 3584 
Q 2172 3584 2450 3431 
Q 2728 3278 2906 2969 
L 2906 3500 
L 3481 3500 
L 3481 434 
z
" id="DejaVuSans-67" transform="scale(0.015625)"/>
       </defs>
       <use xlink:href="#DejaVuSans-41"/>
       <use x="68.408203" xlink:href="#DejaVuSans-75"/>
       <use x="131.787109" xlink:href="#DejaVuSans-67"/>
      </g>
     </g>
    </g>
    <g id="xtick_9">
     <g id="line2d_17">
      <path clip-path="url(#pf87bfaaf97)" d="M 709.45031 548.485875 
L 709.45031 113.605875 
" style="fill:none;stroke:#b0b0b0;stroke-dasharray:3.7,1.6;stroke-dashoffset:0;"/>
     </g>
     <g id="line2d_18">
      <g>
       <use style="stroke:#000000;stroke-width:0.8;" x="709.45031" xlink:href="#maa1bd4a8c7" y="548.485875"/>
      </g>
     </g>
     <g id="text_9">
      <!-- Sep -->
      <g transform="translate(690.60031 567.18275)scale(0.2 -0.2)">
       <defs>
        <path d="M 3425 4513 
L 3425 3897 
Q 3066 4069 2747 4153 
Q 2428 4238 2131 4238 
Q 1616 4238 1336 4038 
Q 1056 3838 1056 3469 
Q 1056 3159 1242 3001 
Q 1428 2844 1947 2747 
L 2328 2669 
Q 3034 2534 3370 2195 
Q 3706 1856 3706 1288 
Q 3706 609 3251 259 
Q 2797 -91 1919 -91 
Q 1588 -91 1214 -16 
Q 841 59 441 206 
L 441 856 
Q 825 641 1194 531 
Q 1563 422 1919 422 
Q 2459 422 2753 634 
Q 3047 847 3047 1241 
Q 3047 1584 2836 1778 
Q 2625 1972 2144 2069 
L 1759 2144 
Q 1053 2284 737 2584 
Q 422 2884 422 3419 
Q 422 4038 858 4394 
Q 1294 4750 2059 4750 
Q 2388 4750 2728 4690 
Q 3069 4631 3425 4513 
z
" id="DejaVuSans-53" transform="scale(0.015625)"/>
       </defs>
       <use xlink:href="#DejaVuSans-53"/>
       <use x="63.476562" xlink:href="#DejaVuSans-65"/>
       <use x="125" xlink:href="#DejaVuSans-70"/>
      </g>
     </g>
    </g>
    <g id="xtick_10">
     <g id="line2d_19">
      <path clip-path="url(#pf87bfaaf97)" d="M 783.235434 548.485875 
L 783.235434 113.605875 
" style="fill:none;stroke:#b0b0b0;stroke-dasharray:3.7,1.6;stroke-dashoffset:0;"/>
     </g>
     <g id="line2d_20">
      <g>
       <use style="stroke:#000000;stroke-width:0.8;" x="783.235434" xlink:href="#maa1bd4a8c7" y="548.485875"/>
      </g>
     </g>
     <g id="text_10">
      <!-- Oct -->
      <g transform="translate(765.944809 567.18275)scale(0.2 -0.2)">
       <defs>
        <path d="M 2522 4238 
Q 1834 4238 1429 3725 
Q 1025 3213 1025 2328 
Q 1025 1447 1429 934 
Q 1834 422 2522 422 
Q 3209 422 3611 934 
Q 4013 1447 4013 2328 
Q 4013 3213 3611 3725 
Q 3209 4238 2522 4238 
z
M 2522 4750 
Q 3503 4750 4090 4092 
Q 4678 3434 4678 2328 
Q 4678 1225 4090 567 
Q 3503 -91 2522 -91 
Q 1538 -91 948 565 
Q 359 1222 359 2328 
Q 359 3434 948 4092 
Q 1538 4750 2522 4750 
z
" id="DejaVuSans-4f" transform="scale(0.015625)"/>
        <path d="M 3122 3366 
L 3122 2828 
Q 2878 2963 2633 3030 
Q 2388 3097 2138 3097 
Q 1578 3097 1268 2742 
Q 959 2388 959 1747 
Q 959 1106 1268 751 
Q 1578 397 2138 397 
Q 2388 397 2633 464 
Q 2878 531 3122 666 
L 3122 134 
Q 2881 22 2623 -34 
Q 2366 -91 2075 -91 
Q 1284 -91 818 406 
Q 353 903 353 1747 
Q 353 2603 823 3093 
Q 1294 3584 2113 3584 
Q 2378 3584 2631 3529 
Q 2884 3475 3122 3366 
z
" id="DejaVuSans-63" transform="scale(0.015625)"/>
        <path d="M 1172 4494 
L 1172 3500 
L 2356 3500 
L 2356 3053 
L 1172 3053 
L 1172 1153 
Q 1172 725 1289 603 
Q 1406 481 1766 481 
L 2356 481 
L 2356 0 
L 1766 0 
Q 1100 0 847 248 
Q 594 497 594 1153 
L 594 3053 
L 172 3053 
L 172 3500 
L 594 3500 
L 594 4494 
L 1172 4494 
z
" id="DejaVuSans-74" transform="scale(0.015625)"/>
       </defs>
       <use xlink:href="#DejaVuSans-4f"/>
       <use x="78.710938" xlink:href="#DejaVuSans-63"/>
       <use x="133.691406" xlink:href="#DejaVuSans-74"/>
      </g>
     </g>
    </g>
    <g id="xtick_11">
     <g id="line2d_21">
      <path clip-path="url(#pf87bfaaf97)" d="M 857.020558 548.485875 
L 857.020558 113.605875 
" style="fill:none;stroke:#b0b0b0;stroke-dasharray:3.7,1.6;stroke-dashoffset:0;"/>
     </g>
     <g id="line2d_22">
      <g>
       <use style="stroke:#000000;stroke-width:0.8;" x="857.020558" xlink:href="#maa1bd4a8c7" y="548.485875"/>
      </g>
     </g>
     <g id="text_11">
      <!-- Nov -->
      <g transform="translate(837.501808 567.18275)scale(0.2 -0.2)">
       <defs>
        <path d="M 628 4666 
L 1478 4666 
L 3547 763 
L 3547 4666 
L 4159 4666 
L 4159 0 
L 3309 0 
L 1241 3903 
L 1241 0 
L 628 0 
L 628 4666 
z
" id="DejaVuSans-4e" transform="scale(0.015625)"/>
        <path d="M 1959 3097 
Q 1497 3097 1228 2736 
Q 959 2375 959 1747 
Q 959 1119 1226 758 
Q 1494 397 1959 397 
Q 2419 397 2687 759 
Q 2956 1122 2956 1747 
Q 2956 2369 2687 2733 
Q 2419 3097 1959 3097 
z
M 1959 3584 
Q 2709 3584 3137 3096 
Q 3566 2609 3566 1747 
Q 3566 888 3137 398 
Q 2709 -91 1959 -91 
Q 1206 -91 779 398 
Q 353 888 353 1747 
Q 353 2609 779 3096 
Q 1206 3584 1959 3584 
z
" id="DejaVuSans-6f" transform="scale(0.015625)"/>
        <path d="M 191 3500 
L 800 3500 
L 1894 563 
L 2988 3500 
L 3597 3500 
L 2284 0 
L 1503 0 
L 191 3500 
z
" id="DejaVuSans-76" transform="scale(0.015625)"/>
       </defs>
       <use xlink:href="#DejaVuSans-4e"/>
       <use x="74.804688" xlink:href="#DejaVuSans-6f"/>
       <use x="135.986328" xlink:href="#DejaVuSans-76"/>
      </g>
     </g>
    </g>
    <g id="xtick_12">
     <g id="line2d_23">
      <path clip-path="url(#pf87bfaaf97)" d="M 930.805682 548.485875 
L 930.805682 113.605875 
" style="fill:none;stroke:#b0b0b0;stroke-dasharray:3.7,1.6;stroke-dashoffset:0;"/>
     </g>
     <g id="line2d_24">
      <g>
       <use style="stroke:#000000;stroke-width:0.8;" x="930.805682" xlink:href="#maa1bd4a8c7" y="548.485875"/>
      </g>
     </g>
     <g id="text_12">
      <!-- Dec -->
      <g transform="translate(911.454119 567.18275)scale(0.2 -0.2)">
       <defs>
        <path d="M 1259 4147 
L 1259 519 
L 2022 519 
Q 2988 519 3436 956 
Q 3884 1394 3884 2338 
Q 3884 3275 3436 3711 
Q 2988 4147 2022 4147 
L 1259 4147 
z
M 628 4666 
L 1925 4666 
Q 3281 4666 3915 4102 
Q 4550 3538 4550 2338 
Q 4550 1131 3912 565 
Q 3275 0 1925 0 
L 628 0 
L 628 4666 
z
" id="DejaVuSans-44" transform="scale(0.015625)"/>
       </defs>
       <use xlink:href="#DejaVuSans-44"/>
       <use x="77.001953" xlink:href="#DejaVuSans-65"/>
       <use x="138.525391" xlink:href="#DejaVuSans-63"/>
      </g>
     </g>
    </g>
    <g id="text_13">
     <!-- Incremental Months -->
     <g transform="translate(425.375 590.539)scale(0.2 -0.2)">
      <defs>
       <path d="M 628 4666 
L 1259 4666 
L 1259 0 
L 628 0 
L 628 4666 
z
" id="DejaVuSans-49" transform="scale(0.015625)"/>
       <path d="M 3328 2828 
Q 3544 3216 3844 3400 
Q 4144 3584 4550 3584 
Q 5097 3584 5394 3201 
Q 5691 2819 5691 2113 
L 5691 0 
L 5113 0 
L 5113 2094 
Q 5113 2597 4934 2840 
Q 4756 3084 4391 3084 
Q 3944 3084 3684 2787 
Q 3425 2491 3425 1978 
L 3425 0 
L 2847 0 
L 2847 2094 
Q 2847 2600 2669 2842 
Q 2491 3084 2119 3084 
Q 1678 3084 1418 2786 
Q 1159 2488 1159 1978 
L 1159 0 
L 581 0 
L 581 3500 
L 1159 3500 
L 1159 2956 
Q 1356 3278 1631 3431 
Q 1906 3584 2284 3584 
Q 2666 3584 2933 3390 
Q 3200 3197 3328 2828 
z
" id="DejaVuSans-6d" transform="scale(0.015625)"/>
       <path id="DejaVuSans-20" transform="scale(0.015625)"/>
       <path d="M 3513 2113 
L 3513 0 
L 2938 0 
L 2938 2094 
Q 2938 2591 2744 2837 
Q 2550 3084 2163 3084 
Q 1697 3084 1428 2787 
Q 1159 2491 1159 1978 
L 1159 0 
L 581 0 
L 581 4863 
L 1159 4863 
L 1159 2956 
Q 1366 3272 1645 3428 
Q 1925 3584 2291 3584 
Q 2894 3584 3203 3211 
Q 3513 2838 3513 2113 
z
" id="DejaVuSans-68" transform="scale(0.015625)"/>
       <path d="M 2834 3397 
L 2834 2853 
Q 2591 2978 2328 3040 
Q 2066 3103 1784 3103 
Q 1356 3103 1142 2972 
Q 928 2841 928 2578 
Q 928 2378 1081 2264 
Q 1234 2150 1697 2047 
L 1894 2003 
Q 2506 1872 2764 1633 
Q 3022 1394 3022 966 
Q 3022 478 2636 193 
Q 2250 -91 1575 -91 
Q 1294 -91 989 -36 
Q 684 19 347 128 
L 347 722 
Q 666 556 975 473 
Q 1284 391 1588 391 
Q 1994 391 2212 530 
Q 2431 669 2431 922 
Q 2431 1156 2273 1281 
Q 2116 1406 1581 1522 
L 1381 1569 
Q 847 1681 609 1914 
Q 372 2147 372 2553 
Q 372 3047 722 3315 
Q 1072 3584 1716 3584 
Q 2034 3584 2315 3537 
Q 2597 3491 2834 3397 
z
" id="DejaVuSans-73" transform="scale(0.015625)"/>
      </defs>
      <use xlink:href="#DejaVuSans-49"/>
      <use x="29.492188" xlink:href="#DejaVuSans-6e"/>
      <use x="92.871094" xlink:href="#DejaVuSans-63"/>
      <use x="147.851562" xlink:href="#DejaVuSans-72"/>
      <use x="186.714844" xlink:href="#DejaVuSans-65"/>
      <use x="248.238281" xlink:href="#DejaVuSans-6d"/>
      <use x="345.650391" xlink:href="#DejaVuSans-65"/>
      <use x="407.173828" xlink:href="#DejaVuSans-6e"/>
      <use x="470.552734" xlink:href="#DejaVuSans-74"/>
      <use x="509.761719" xlink:href="#DejaVuSans-61"/>
      <use x="571.041016" xlink:href="#DejaVuSans-6c"/>
      <use x="598.824219" xlink:href="#DejaVuSans-20"/>
      <use x="630.611328" xlink:href="#DejaVuSans-4d"/>
      <use x="716.890625" xlink:href="#DejaVuSans-6f"/>
      <use x="778.072266" xlink:href="#DejaVuSans-6e"/>
      <use x="841.451172" xlink:href="#DejaVuSans-74"/>
      <use x="880.660156" xlink:href="#DejaVuSans-68"/>
      <use x="944.039062" xlink:href="#DejaVuSans-73"/>
     </g>
    </g>
   </g>
   <g id="matplotlib.axis_2">
    <g id="ytick_1">
     <g id="line2d_25">
      <path clip-path="url(#pf87bfaaf97)" d="M 78.5875 462.789047 
L 971.3875 462.789047 
" style="fill:none;stroke:#b0b0b0;stroke-dasharray:3.7,1.6;stroke-dashoffset:0;"/>
     </g>
     <g id="line2d_26">
      <defs>
       <path d="M 0 0 
L 5 0 
" id="m454afb2cc3" style="stroke:#000000;stroke-width:0.8;"/>
      </defs>
      <g>
       <use style="stroke:#000000;stroke-width:0.8;" x="78.5875" xlink:href="#m454afb2cc3" y="462.789047"/>
      </g>
     </g>
     <g id="text_14">
      <!-- 0.93 -->
      <g transform="translate(30.55625 470.387485)scale(0.2 -0.2)">
       <defs>
        <path d="M 2034 4250 
Q 1547 4250 1301 3770 
Q 1056 3291 1056 2328 
Q 1056 1369 1301 889 
Q 1547 409 2034 409 
Q 2525 409 2770 889 
Q 3016 1369 3016 2328 
Q 3016 3291 2770 3770 
Q 2525 4250 2034 4250 
z
M 2034 4750 
Q 2819 4750 3233 4129 
Q 3647 3509 3647 2328 
Q 3647 1150 3233 529 
Q 2819 -91 2034 -91 
Q 1250 -91 836 529 
Q 422 1150 422 2328 
Q 422 3509 836 4129 
Q 1250 4750 2034 4750 
z
" id="DejaVuSans-30" transform="scale(0.015625)"/>
        <path d="M 684 794 
L 1344 794 
L 1344 0 
L 684 0 
L 684 794 
z
" id="DejaVuSans-2e" transform="scale(0.015625)"/>
        <path d="M 703 97 
L 703 672 
Q 941 559 1184 500 
Q 1428 441 1663 441 
Q 2288 441 2617 861 
Q 2947 1281 2994 2138 
Q 2813 1869 2534 1725 
Q 2256 1581 1919 1581 
Q 1219 1581 811 2004 
Q 403 2428 403 3163 
Q 403 3881 828 4315 
Q 1253 4750 1959 4750 
Q 2769 4750 3195 4129 
Q 3622 3509 3622 2328 
Q 3622 1225 3098 567 
Q 2575 -91 1691 -91 
Q 1453 -91 1209 -44 
Q 966 3 703 97 
z
M 1959 2075 
Q 2384 2075 2632 2365 
Q 2881 2656 2881 3163 
Q 2881 3666 2632 3958 
Q 2384 4250 1959 4250 
Q 1534 4250 1286 3958 
Q 1038 3666 1038 3163 
Q 1038 2656 1286 2365 
Q 1534 2075 1959 2075 
z
" id="DejaVuSans-39" transform="scale(0.015625)"/>
        <path d="M 2597 2516 
Q 3050 2419 3304 2112 
Q 3559 1806 3559 1356 
Q 3559 666 3084 287 
Q 2609 -91 1734 -91 
Q 1441 -91 1130 -33 
Q 819 25 488 141 
L 488 750 
Q 750 597 1062 519 
Q 1375 441 1716 441 
Q 2309 441 2620 675 
Q 2931 909 2931 1356 
Q 2931 1769 2642 2001 
Q 2353 2234 1838 2234 
L 1294 2234 
L 1294 2753 
L 1863 2753 
Q 2328 2753 2575 2939 
Q 2822 3125 2822 3475 
Q 2822 3834 2567 4026 
Q 2313 4219 1838 4219 
Q 1578 4219 1281 4162 
Q 984 4106 628 3988 
L 628 4550 
Q 988 4650 1302 4700 
Q 1616 4750 1894 4750 
Q 2613 4750 3031 4423 
Q 3450 4097 3450 3541 
Q 3450 3153 3228 2886 
Q 3006 2619 2597 2516 
z
" id="DejaVuSans-33" transform="scale(0.015625)"/>
       </defs>
       <use xlink:href="#DejaVuSans-30"/>
       <use x="63.623047" xlink:href="#DejaVuSans-2e"/>
       <use x="95.410156" xlink:href="#DejaVuSans-39"/>
       <use x="159.033203" xlink:href="#DejaVuSans-33"/>
      </g>
     </g>
    </g>
    <g id="ytick_2">
     <g id="line2d_27">
      <path clip-path="url(#pf87bfaaf97)" d="M 78.5875 367.53726 
L 971.3875 367.53726 
" style="fill:none;stroke:#b0b0b0;stroke-dasharray:3.7,1.6;stroke-dashoffset:0;"/>
     </g>
     <g id="line2d_28">
      <g>
       <use style="stroke:#000000;stroke-width:0.8;" x="78.5875" xlink:href="#m454afb2cc3" y="367.53726"/>
      </g>
     </g>
     <g id="text_15">
      <!-- 0.94 -->
      <g transform="translate(30.55625 375.135698)scale(0.2 -0.2)">
       <defs>
        <path d="M 2419 4116 
L 825 1625 
L 2419 1625 
L 2419 4116 
z
M 2253 4666 
L 3047 4666 
L 3047 1625 
L 3713 1625 
L 3713 1100 
L 3047 1100 
L 3047 0 
L 2419 0 
L 2419 1100 
L 313 1100 
L 313 1709 
L 2253 4666 
z
" id="DejaVuSans-34" transform="scale(0.015625)"/>
       </defs>
       <use xlink:href="#DejaVuSans-30"/>
       <use x="63.623047" xlink:href="#DejaVuSans-2e"/>
       <use x="95.410156" xlink:href="#DejaVuSans-39"/>
       <use x="159.033203" xlink:href="#DejaVuSans-34"/>
      </g>
     </g>
    </g>
    <g id="ytick_3">
     <g id="line2d_29">
      <path clip-path="url(#pf87bfaaf97)" d="M 78.5875 272.285473 
L 971.3875 272.285473 
" style="fill:none;stroke:#b0b0b0;stroke-dasharray:3.7,1.6;stroke-dashoffset:0;"/>
     </g>
     <g id="line2d_30">
      <g>
       <use style="stroke:#000000;stroke-width:0.8;" x="78.5875" xlink:href="#m454afb2cc3" y="272.285473"/>
      </g>
     </g>
     <g id="text_16">
      <!-- 0.95 -->
      <g transform="translate(30.55625 279.883911)scale(0.2 -0.2)">
       <defs>
        <path d="M 691 4666 
L 3169 4666 
L 3169 4134 
L 1269 4134 
L 1269 2991 
Q 1406 3038 1543 3061 
Q 1681 3084 1819 3084 
Q 2600 3084 3056 2656 
Q 3513 2228 3513 1497 
Q 3513 744 3044 326 
Q 2575 -91 1722 -91 
Q 1428 -91 1123 -41 
Q 819 9 494 109 
L 494 744 
Q 775 591 1075 516 
Q 1375 441 1709 441 
Q 2250 441 2565 725 
Q 2881 1009 2881 1497 
Q 2881 1984 2565 2268 
Q 2250 2553 1709 2553 
Q 1456 2553 1204 2497 
Q 953 2441 691 2322 
L 691 4666 
z
" id="DejaVuSans-35" transform="scale(0.015625)"/>
       </defs>
       <use xlink:href="#DejaVuSans-30"/>
       <use x="63.623047" xlink:href="#DejaVuSans-2e"/>
       <use x="95.410156" xlink:href="#DejaVuSans-39"/>
       <use x="159.033203" xlink:href="#DejaVuSans-35"/>
      </g>
     </g>
    </g>
    <g id="ytick_4">
     <g id="line2d_31">
      <path clip-path="url(#pf87bfaaf97)" d="M 78.5875 177.033686 
L 971.3875 177.033686 
" style="fill:none;stroke:#b0b0b0;stroke-dasharray:3.7,1.6;stroke-dashoffset:0;"/>
     </g>
     <g id="line2d_32">
      <g>
       <use style="stroke:#000000;stroke-width:0.8;" x="78.5875" xlink:href="#m454afb2cc3" y="177.033686"/>
      </g>
     </g>
     <g id="text_17">
      <!-- 0.96 -->
      <g transform="translate(30.55625 184.632124)scale(0.2 -0.2)">
       <defs>
        <path d="M 2113 2584 
Q 1688 2584 1439 2293 
Q 1191 2003 1191 1497 
Q 1191 994 1439 701 
Q 1688 409 2113 409 
Q 2538 409 2786 701 
Q 3034 994 3034 1497 
Q 3034 2003 2786 2293 
Q 2538 2584 2113 2584 
z
M 3366 4563 
L 3366 3988 
Q 3128 4100 2886 4159 
Q 2644 4219 2406 4219 
Q 1781 4219 1451 3797 
Q 1122 3375 1075 2522 
Q 1259 2794 1537 2939 
Q 1816 3084 2150 3084 
Q 2853 3084 3261 2657 
Q 3669 2231 3669 1497 
Q 3669 778 3244 343 
Q 2819 -91 2113 -91 
Q 1303 -91 875 529 
Q 447 1150 447 2328 
Q 447 3434 972 4092 
Q 1497 4750 2381 4750 
Q 2619 4750 2861 4703 
Q 3103 4656 3366 4563 
z
" id="DejaVuSans-36" transform="scale(0.015625)"/>
       </defs>
       <use xlink:href="#DejaVuSans-30"/>
       <use x="63.623047" xlink:href="#DejaVuSans-2e"/>
       <use x="95.410156" xlink:href="#DejaVuSans-39"/>
       <use x="159.033203" xlink:href="#DejaVuSans-36"/>
      </g>
     </g>
    </g>
    <g id="text_18">
     <!-- Accuracy -->
     <g transform="translate(22.396875 376.702125)rotate(-90)scale(0.2 -0.2)">
      <use xlink:href="#DejaVuSans-41"/>
      <use x="66.658203" xlink:href="#DejaVuSans-63"/>
      <use x="121.638672" xlink:href="#DejaVuSans-63"/>
      <use x="176.619141" xlink:href="#DejaVuSans-75"/>
      <use x="239.998047" xlink:href="#DejaVuSans-72"/>
      <use x="281.111328" xlink:href="#DejaVuSans-61"/>
      <use x="342.390625" xlink:href="#DejaVuSans-63"/>
      <use x="397.371094" xlink:href="#DejaVuSans-79"/>
     </g>
    </g>
   </g>
   <g id="line2d_33">
    <path clip-path="url(#pf87bfaaf97)" d="M 119.169318 474.03405 
L 192.954442 367.38836 
L 266.739566 382.7533 
L 340.52469 303.594559 
L 414.309814 315.340963 
L 488.094938 306.108145 
L 561.880062 254.60244 
L 635.665186 257.376976 
L 709.45031 274.291481 
L 783.235434 222.092295 
L 857.020558 240.71552 
L 930.805682 191.409206 
" style="fill:none;stroke:#6495ed;stroke-linecap:square;stroke-width:3;"/>
    <defs>
     <path d="M 0 -6 
L -5.706339 -1.854102 
L -3.526712 4.854102 
L 3.526712 4.854102 
L 5.706339 -1.854102 
z
" id="mc140fa642c" style="stroke:#6495ed;stroke-linejoin:miter;"/>
    </defs>
    <g clip-path="url(#pf87bfaaf97)">
     <use style="fill:#6495ed;stroke:#6495ed;stroke-linejoin:miter;" x="119.169318" xlink:href="#mc140fa642c" y="474.03405"/>
     <use style="fill:#6495ed;stroke:#6495ed;stroke-linejoin:miter;" x="192.954442" xlink:href="#mc140fa642c" y="367.38836"/>
     <use style="fill:#6495ed;stroke:#6495ed;stroke-linejoin:miter;" x="266.739566" xlink:href="#mc140fa642c" y="382.7533"/>
     <use style="fill:#6495ed;stroke:#6495ed;stroke-linejoin:miter;" x="340.52469" xlink:href="#mc140fa642c" y="303.594559"/>
     <use style="fill:#6495ed;stroke:#6495ed;stroke-linejoin:miter;" x="414.309814" xlink:href="#mc140fa642c" y="315.340963"/>
     <use style="fill:#6495ed;stroke:#6495ed;stroke-linejoin:miter;" x="488.094938" xlink:href="#mc140fa642c" y="306.108145"/>
     <use style="fill:#6495ed;stroke:#6495ed;stroke-linejoin:miter;" x="561.880062" xlink:href="#mc140fa642c" y="254.60244"/>
     <use style="fill:#6495ed;stroke:#6495ed;stroke-linejoin:miter;" x="635.665186" xlink:href="#mc140fa642c" y="257.376976"/>
     <use style="fill:#6495ed;stroke:#6495ed;stroke-linejoin:miter;" x="709.45031" xlink:href="#mc140fa642c" y="274.291481"/>
     <use style="fill:#6495ed;stroke:#6495ed;stroke-linejoin:miter;" x="783.235434" xlink:href="#mc140fa642c" y="222.092295"/>
     <use style="fill:#6495ed;stroke:#6495ed;stroke-linejoin:miter;" x="857.020558" xlink:href="#mc140fa642c" y="240.71552"/>
     <use style="fill:#6495ed;stroke:#6495ed;stroke-linejoin:miter;" x="930.805682" xlink:href="#mc140fa642c" y="191.409206"/>
    </g>
   </g>
   <g id="line2d_34">
    <path clip-path="url(#pf87bfaaf97)" d="M 119.169318 506.107689 
L 192.954442 332.804746 
L 266.739566 339.310479 
L 340.52469 274.502321 
L 414.309814 259.646103 
L 488.094938 257.282766 
L 561.880062 200.434833 
L 635.665186 193.604173 
L 709.45031 200.526766 
L 783.235434 160.127246 
L 857.020558 215.90828 
L 930.805682 163.576666 
" style="fill:none;stroke:#800080;stroke-linecap:square;stroke-width:3;"/>
    <defs>
     <path d="M 0 6 
C 1.591219 6 3.117479 5.367802 4.242641 4.242641 
C 5.367802 3.117479 6 1.591219 6 0 
C 6 -1.591219 5.367802 -3.117479 4.242641 -4.242641 
C 3.117479 -5.367802 1.591219 -6 0 -6 
C -1.591219 -6 -3.117479 -5.367802 -4.242641 -4.242641 
C -5.367802 -3.117479 -6 -1.591219 -6 0 
C -6 1.591219 -5.367802 3.117479 -4.242641 4.242641 
C -3.117479 5.367802 -1.591219 6 0 6 
z
" id="m52f56ac36a" style="stroke:#800080;"/>
    </defs>
    <g clip-path="url(#pf87bfaaf97)">
     <use style="fill:#800080;stroke:#800080;" x="119.169318" xlink:href="#m52f56ac36a" y="506.107689"/>
     <use style="fill:#800080;stroke:#800080;" x="192.954442" xlink:href="#m52f56ac36a" y="332.804746"/>
     <use style="fill:#800080;stroke:#800080;" x="266.739566" xlink:href="#m52f56ac36a" y="339.310479"/>
     <use style="fill:#800080;stroke:#800080;" x="340.52469" xlink:href="#m52f56ac36a" y="274.502321"/>
     <use style="fill:#800080;stroke:#800080;" x="414.309814" xlink:href="#m52f56ac36a" y="259.646103"/>
     <use style="fill:#800080;stroke:#800080;" x="488.094938" xlink:href="#m52f56ac36a" y="257.282766"/>
     <use style="fill:#800080;stroke:#800080;" x="561.880062" xlink:href="#m52f56ac36a" y="200.434833"/>
     <use style="fill:#800080;stroke:#800080;" x="635.665186" xlink:href="#m52f56ac36a" y="193.604173"/>
     <use style="fill:#800080;stroke:#800080;" x="709.45031" xlink:href="#m52f56ac36a" y="200.526766"/>
     <use style="fill:#800080;stroke:#800080;" x="783.235434" xlink:href="#m52f56ac36a" y="160.127246"/>
     <use style="fill:#800080;stroke:#800080;" x="857.020558" xlink:href="#m52f56ac36a" y="215.90828"/>
     <use style="fill:#800080;stroke:#800080;" x="930.805682" xlink:href="#m52f56ac36a" y="163.576666"/>
    </g>
   </g>
   <g id="line2d_35">
    <path clip-path="url(#pf87bfaaf97)" d="M 119.169318 479.80269 
L 192.954442 343.403863 
L 266.739566 319.54349 
L 340.52469 251.826707 
L 414.309814 223.687277 
L 488.094938 224.47458 
L 561.880062 180.313795 
L 635.665186 169.214193 
L 709.45031 202.599065 
L 783.235434 165.752817 
L 857.020558 239.049505 
L 930.805682 139.607022 
" style="fill:none;stroke:#0000ff;stroke-linecap:square;stroke-width:3;"/>
    <defs>
     <path d="M -0 8.485281 
L 8.485281 0 
L 0 -8.485281 
L -8.485281 -0 
z
" id="m3880c56ff4" style="stroke:#0000ff;stroke-linejoin:miter;"/>
    </defs>
    <g clip-path="url(#pf87bfaaf97)">
     <use style="fill:#0000ff;stroke:#0000ff;stroke-linejoin:miter;" x="119.169318" xlink:href="#m3880c56ff4" y="479.80269"/>
     <use style="fill:#0000ff;stroke:#0000ff;stroke-linejoin:miter;" x="192.954442" xlink:href="#m3880c56ff4" y="343.403863"/>
     <use style="fill:#0000ff;stroke:#0000ff;stroke-linejoin:miter;" x="266.739566" xlink:href="#m3880c56ff4" y="319.54349"/>
     <use style="fill:#0000ff;stroke:#0000ff;stroke-linejoin:miter;" x="340.52469" xlink:href="#m3880c56ff4" y="251.826707"/>
     <use style="fill:#0000ff;stroke:#0000ff;stroke-linejoin:miter;" x="414.309814" xlink:href="#m3880c56ff4" y="223.687277"/>
     <use style="fill:#0000ff;stroke:#0000ff;stroke-linejoin:miter;" x="488.094938" xlink:href="#m3880c56ff4" y="224.47458"/>
     <use style="fill:#0000ff;stroke:#0000ff;stroke-linejoin:miter;" x="561.880062" xlink:href="#m3880c56ff4" y="180.313795"/>
     <use style="fill:#0000ff;stroke:#0000ff;stroke-linejoin:miter;" x="635.665186" xlink:href="#m3880c56ff4" y="169.214193"/>
     <use style="fill:#0000ff;stroke:#0000ff;stroke-linejoin:miter;" x="709.45031" xlink:href="#m3880c56ff4" y="202.599065"/>
     <use style="fill:#0000ff;stroke:#0000ff;stroke-linejoin:miter;" x="783.235434" xlink:href="#m3880c56ff4" y="165.752817"/>
     <use style="fill:#0000ff;stroke:#0000ff;stroke-linejoin:miter;" x="857.020558" xlink:href="#m3880c56ff4" y="239.049505"/>
     <use style="fill:#0000ff;stroke:#0000ff;stroke-linejoin:miter;" x="930.805682" xlink:href="#m3880c56ff4" y="139.607022"/>
    </g>
   </g>
   <g id="line2d_36">
    <path clip-path="url(#pf87bfaaf97)" d="M 119.169318 472.265 
L 192.954442 364.615527 
L 266.739566 392.83861 
L 340.52469 333.975633 
L 414.309814 357.475452 
L 488.094938 355.173734 
L 561.880062 297.368658 
L 635.665186 288.455015 
L 709.45031 354.17522 
L 783.235434 252.873545 
L 857.020558 294.630945 
L 930.805682 213.22139 
" style="fill:none;stroke:#ee82ee;stroke-linecap:square;stroke-width:3;"/>
    <defs>
     <path d="M -3 6 
L 0 3 
L 3 6 
L 6 3 
L 3 0 
L 6 -3 
L 3 -6 
L 0 -3 
L -3 -6 
L -6 -3 
L -3 0 
L -6 3 
z
" id="m27f260bbff" style="stroke:#ee82ee;stroke-linejoin:miter;"/>
    </defs>
    <g clip-path="url(#pf87bfaaf97)">
     <use style="fill:#ee82ee;stroke:#ee82ee;stroke-linejoin:miter;" x="119.169318" xlink:href="#m27f260bbff" y="472.265"/>
     <use style="fill:#ee82ee;stroke:#ee82ee;stroke-linejoin:miter;" x="192.954442" xlink:href="#m27f260bbff" y="364.615527"/>
     <use style="fill:#ee82ee;stroke:#ee82ee;stroke-linejoin:miter;" x="266.739566" xlink:href="#m27f260bbff" y="392.83861"/>
     <use style="fill:#ee82ee;stroke:#ee82ee;stroke-linejoin:miter;" x="340.52469" xlink:href="#m27f260bbff" y="333.975633"/>
     <use style="fill:#ee82ee;stroke:#ee82ee;stroke-linejoin:miter;" x="414.309814" xlink:href="#m27f260bbff" y="357.475452"/>
     <use style="fill:#ee82ee;stroke:#ee82ee;stroke-linejoin:miter;" x="488.094938" xlink:href="#m27f260bbff" y="355.173734"/>
     <use style="fill:#ee82ee;stroke:#ee82ee;stroke-linejoin:miter;" x="561.880062" xlink:href="#m27f260bbff" y="297.368658"/>
     <use style="fill:#ee82ee;stroke:#ee82ee;stroke-linejoin:miter;" x="635.665186" xlink:href="#m27f260bbff" y="288.455015"/>
     <use style="fill:#ee82ee;stroke:#ee82ee;stroke-linejoin:miter;" x="709.45031" xlink:href="#m27f260bbff" y="354.17522"/>
     <use style="fill:#ee82ee;stroke:#ee82ee;stroke-linejoin:miter;" x="783.235434" xlink:href="#m27f260bbff" y="252.873545"/>
     <use style="fill:#ee82ee;stroke:#ee82ee;stroke-linejoin:miter;" x="857.020558" xlink:href="#m27f260bbff" y="294.630945"/>
     <use style="fill:#ee82ee;stroke:#ee82ee;stroke-linejoin:miter;" x="930.805682" xlink:href="#m27f260bbff" y="213.22139"/>
    </g>
   </g>
   <g id="line2d_37">
    <path clip-path="url(#pf87bfaaf97)" d="M 119.169318 507.953654 
L 192.954442 329.817355 
L 266.739566 336.86859 
L 340.52469 275.647087 
L 414.309814 259.391452 
L 488.094938 253.094749 
L 561.880062 199.286973 
L 635.665186 179.390804 
L 709.45031 219.239982 
L 783.235434 166.636789 
L 857.020558 246.921531 
L 930.805682 155.211342 
" style="fill:none;stroke:#ffff00;stroke-linecap:square;stroke-width:3;"/>
    <defs>
     <path d="M -6 0 
L 6 0 
M 0 6 
L 0 -6 
" id="mfd1fbf7c81" style="stroke:#ffff00;"/>
    </defs>
    <g clip-path="url(#pf87bfaaf97)">
     <use style="fill:#ffff00;stroke:#ffff00;" x="119.169318" xlink:href="#mfd1fbf7c81" y="507.953654"/>
     <use style="fill:#ffff00;stroke:#ffff00;" x="192.954442" xlink:href="#mfd1fbf7c81" y="329.817355"/>
     <use style="fill:#ffff00;stroke:#ffff00;" x="266.739566" xlink:href="#mfd1fbf7c81" y="336.86859"/>
     <use style="fill:#ffff00;stroke:#ffff00;" x="340.52469" xlink:href="#mfd1fbf7c81" y="275.647087"/>
     <use style="fill:#ffff00;stroke:#ffff00;" x="414.309814" xlink:href="#mfd1fbf7c81" y="259.391452"/>
     <use style="fill:#ffff00;stroke:#ffff00;" x="488.094938" xlink:href="#mfd1fbf7c81" y="253.094749"/>
     <use style="fill:#ffff00;stroke:#ffff00;" x="561.880062" xlink:href="#mfd1fbf7c81" y="199.286973"/>
     <use style="fill:#ffff00;stroke:#ffff00;" x="635.665186" xlink:href="#mfd1fbf7c81" y="179.390804"/>
     <use style="fill:#ffff00;stroke:#ffff00;" x="709.45031" xlink:href="#mfd1fbf7c81" y="219.239982"/>
     <use style="fill:#ffff00;stroke:#ffff00;" x="783.235434" xlink:href="#mfd1fbf7c81" y="166.636789"/>
     <use style="fill:#ffff00;stroke:#ffff00;" x="857.020558" xlink:href="#mfd1fbf7c81" y="246.921531"/>
     <use style="fill:#ffff00;stroke:#ffff00;" x="930.805682" xlink:href="#mfd1fbf7c81" y="155.211342"/>
    </g>
   </g>
   <g id="line2d_38">
    <path clip-path="url(#pf87bfaaf97)" d="M 119.169318 497.185526 
L 192.954442 319.968816 
L 266.739566 316.559814 
L 340.52469 253.751169 
L 414.309814 241.727388 
L 488.094938 225.961416 
L 561.880062 175.168526 
L 635.665186 155.201835 
L 709.45031 175.6038 
L 783.235434 154.688323 
L 857.020558 310.192185 
L 930.805682 147.693403 
" style="fill:none;stroke:#ff0000;stroke-linecap:square;stroke-width:3;"/>
    <defs>
     <path d="M -3 -5.196152 
L -6 -0 
L -3 5.196152 
L 3 5.196152 
L 6 0 
L 3 -5.196152 
z
" id="mbed6831461" style="stroke:#ff0000;stroke-linejoin:miter;"/>
    </defs>
    <g clip-path="url(#pf87bfaaf97)">
     <use style="fill:#ff0000;stroke:#ff0000;stroke-linejoin:miter;" x="119.169318" xlink:href="#mbed6831461" y="497.185526"/>
     <use style="fill:#ff0000;stroke:#ff0000;stroke-linejoin:miter;" x="192.954442" xlink:href="#mbed6831461" y="319.968816"/>
     <use style="fill:#ff0000;stroke:#ff0000;stroke-linejoin:miter;" x="266.739566" xlink:href="#mbed6831461" y="316.559814"/>
     <use style="fill:#ff0000;stroke:#ff0000;stroke-linejoin:miter;" x="340.52469" xlink:href="#mbed6831461" y="253.751169"/>
     <use style="fill:#ff0000;stroke:#ff0000;stroke-linejoin:miter;" x="414.309814" xlink:href="#mbed6831461" y="241.727388"/>
     <use style="fill:#ff0000;stroke:#ff0000;stroke-linejoin:miter;" x="488.094938" xlink:href="#mbed6831461" y="225.961416"/>
     <use style="fill:#ff0000;stroke:#ff0000;stroke-linejoin:miter;" x="561.880062" xlink:href="#mbed6831461" y="175.168526"/>
     <use style="fill:#ff0000;stroke:#ff0000;stroke-linejoin:miter;" x="635.665186" xlink:href="#mbed6831461" y="155.201835"/>
     <use style="fill:#ff0000;stroke:#ff0000;stroke-linejoin:miter;" x="709.45031" xlink:href="#mbed6831461" y="175.6038"/>
     <use style="fill:#ff0000;stroke:#ff0000;stroke-linejoin:miter;" x="783.235434" xlink:href="#mbed6831461" y="154.688323"/>
     <use style="fill:#ff0000;stroke:#ff0000;stroke-linejoin:miter;" x="857.020558" xlink:href="#mbed6831461" y="310.192185"/>
     <use style="fill:#ff0000;stroke:#ff0000;stroke-linejoin:miter;" x="930.805682" xlink:href="#mbed6831461" y="147.693403"/>
    </g>
   </g>
   <g id="line2d_39">
    <path clip-path="url(#pf87bfaaf97)" d="M 119.169318 491.33997 
L 192.954442 359.034688 
L 266.739566 365.397585 
L 340.52469 326.162152 
L 414.309814 368.617973 
L 488.094938 377.387976 
L 561.880062 321.808684 
L 635.665186 314.972587 
L 709.45031 307.272487 
L 783.235434 269.029949 
L 857.020558 310.338713 
L 930.805682 255.420906 
" style="fill:none;stroke:#00ff00;stroke-linecap:square;stroke-width:3;"/>
    <defs>
     <path d="M 0 -6 
L -1.347084 -1.854102 
L -5.706339 -1.854102 
L -2.179628 0.708204 
L -3.526712 4.854102 
L -0 2.291796 
L 3.526712 4.854102 
L 2.179628 0.708204 
L 5.706339 -1.854102 
L 1.347084 -1.854102 
z
" id="m1614db03d5" style="stroke:#00ff00;stroke-linejoin:bevel;"/>
    </defs>
    <g clip-path="url(#pf87bfaaf97)">
     <use style="fill:#00ff00;stroke:#00ff00;stroke-linejoin:bevel;" x="119.169318" xlink:href="#m1614db03d5" y="491.33997"/>
     <use style="fill:#00ff00;stroke:#00ff00;stroke-linejoin:bevel;" x="192.954442" xlink:href="#m1614db03d5" y="359.034688"/>
     <use style="fill:#00ff00;stroke:#00ff00;stroke-linejoin:bevel;" x="266.739566" xlink:href="#m1614db03d5" y="365.397585"/>
     <use style="fill:#00ff00;stroke:#00ff00;stroke-linejoin:bevel;" x="340.52469" xlink:href="#m1614db03d5" y="326.162152"/>
     <use style="fill:#00ff00;stroke:#00ff00;stroke-linejoin:bevel;" x="414.309814" xlink:href="#m1614db03d5" y="368.617973"/>
     <use style="fill:#00ff00;stroke:#00ff00;stroke-linejoin:bevel;" x="488.094938" xlink:href="#m1614db03d5" y="377.387976"/>
     <use style="fill:#00ff00;stroke:#00ff00;stroke-linejoin:bevel;" x="561.880062" xlink:href="#m1614db03d5" y="321.808684"/>
     <use style="fill:#00ff00;stroke:#00ff00;stroke-linejoin:bevel;" x="635.665186" xlink:href="#m1614db03d5" y="314.972587"/>
     <use style="fill:#00ff00;stroke:#00ff00;stroke-linejoin:bevel;" x="709.45031" xlink:href="#m1614db03d5" y="307.272487"/>
     <use style="fill:#00ff00;stroke:#00ff00;stroke-linejoin:bevel;" x="783.235434" xlink:href="#m1614db03d5" y="269.029949"/>
     <use style="fill:#00ff00;stroke:#00ff00;stroke-linejoin:bevel;" x="857.020558" xlink:href="#m1614db03d5" y="310.338713"/>
     <use style="fill:#00ff00;stroke:#00ff00;stroke-linejoin:bevel;" x="930.805682" xlink:href="#m1614db03d5" y="255.420906"/>
    </g>
   </g>
   <g id="line2d_40">
    <path clip-path="url(#pf87bfaaf97)" d="M 119.169318 512.260906 
L 192.954442 315.701116 
L 266.739566 319.581953 
L 340.52469 246.664523 
L 414.309814 266.695579 
L 488.094938 270.765881 
L 561.880062 276.466004 
L 635.665186 236.94059 
L 709.45031 234.483884 
L 783.235434 209.859066 
L 857.020558 335.277725 
L 930.805682 236.816545 
" style="fill:none;stroke:#000000;stroke-linecap:square;stroke-width:3;"/>
    <defs>
     <path d="M 0 0 
L 6 0 
M 0 0 
L -3 -4.8 
M 0 0 
L -3 4.8 
" id="me410d85e15" style="stroke:#000000;"/>
    </defs>
    <g clip-path="url(#pf87bfaaf97)">
     <use style="stroke:#000000;" x="119.169318" xlink:href="#me410d85e15" y="512.260906"/>
     <use style="stroke:#000000;" x="192.954442" xlink:href="#me410d85e15" y="315.701116"/>
     <use style="stroke:#000000;" x="266.739566" xlink:href="#me410d85e15" y="319.581953"/>
     <use style="stroke:#000000;" x="340.52469" xlink:href="#me410d85e15" y="246.664523"/>
     <use style="stroke:#000000;" x="414.309814" xlink:href="#me410d85e15" y="266.695579"/>
     <use style="stroke:#000000;" x="488.094938" xlink:href="#me410d85e15" y="270.765881"/>
     <use style="stroke:#000000;" x="561.880062" xlink:href="#me410d85e15" y="276.466004"/>
     <use style="stroke:#000000;" x="635.665186" xlink:href="#me410d85e15" y="236.94059"/>
     <use style="stroke:#000000;" x="709.45031" xlink:href="#me410d85e15" y="234.483884"/>
     <use style="stroke:#000000;" x="783.235434" xlink:href="#me410d85e15" y="209.859066"/>
     <use style="stroke:#000000;" x="857.020558" xlink:href="#me410d85e15" y="335.277725"/>
     <use style="stroke:#000000;" x="930.805682" xlink:href="#me410d85e15" y="236.816545"/>
    </g>
   </g>
   <g id="line2d_41">
    <path clip-path="url(#pf87bfaaf97)" d="M 119.169318 443.960206 
L 192.954442 339.173468 
L 266.739566 288.393476 
L 340.52469 222.951516 
L 414.309814 216.013877 
L 488.094938 206.723694 
L 561.880062 208.184 
L 635.665186 202.724367 
L 709.45031 201.654025 
L 783.235434 171.520075 
L 857.020558 325.108704 
L 930.805682 203.062012 
" style="fill:none;stroke:#008000;stroke-linecap:square;stroke-width:3;"/>
    <defs>
     <path d="M 0 -6 
L -6 6 
L 6 6 
z
" id="m7a024ea638" style="stroke:#008000;stroke-linejoin:miter;"/>
    </defs>
    <g clip-path="url(#pf87bfaaf97)">
     <use style="fill:#008000;stroke:#008000;stroke-linejoin:miter;" x="119.169318" xlink:href="#m7a024ea638" y="443.960206"/>
     <use style="fill:#008000;stroke:#008000;stroke-linejoin:miter;" x="192.954442" xlink:href="#m7a024ea638" y="339.173468"/>
     <use style="fill:#008000;stroke:#008000;stroke-linejoin:miter;" x="266.739566" xlink:href="#m7a024ea638" y="288.393476"/>
     <use style="fill:#008000;stroke:#008000;stroke-linejoin:miter;" x="340.52469" xlink:href="#m7a024ea638" y="222.951516"/>
     <use style="fill:#008000;stroke:#008000;stroke-linejoin:miter;" x="414.309814" xlink:href="#m7a024ea638" y="216.013877"/>
     <use style="fill:#008000;stroke:#008000;stroke-linejoin:miter;" x="488.094938" xlink:href="#m7a024ea638" y="206.723694"/>
     <use style="fill:#008000;stroke:#008000;stroke-linejoin:miter;" x="561.880062" xlink:href="#m7a024ea638" y="208.184"/>
     <use style="fill:#008000;stroke:#008000;stroke-linejoin:miter;" x="635.665186" xlink:href="#m7a024ea638" y="202.724367"/>
     <use style="fill:#008000;stroke:#008000;stroke-linejoin:miter;" x="709.45031" xlink:href="#m7a024ea638" y="201.654025"/>
     <use style="fill:#008000;stroke:#008000;stroke-linejoin:miter;" x="783.235434" xlink:href="#m7a024ea638" y="171.520075"/>
     <use style="fill:#008000;stroke:#008000;stroke-linejoin:miter;" x="857.020558" xlink:href="#m7a024ea638" y="325.108704"/>
     <use style="fill:#008000;stroke:#008000;stroke-linejoin:miter;" x="930.805682" xlink:href="#m7a024ea638" y="203.062012"/>
    </g>
   </g>
   <g id="patch_3">
    <path d="M 78.5875 548.485875 
L 78.5875 113.605875 
" style="fill:none;stroke:#000000;stroke-linecap:square;stroke-linejoin:miter;stroke-width:0.8;"/>
   </g>
   <g id="patch_4">
    <path d="M 971.3875 548.485875 
L 971.3875 113.605875 
" style="fill:none;stroke:#000000;stroke-linecap:square;stroke-linejoin:miter;stroke-width:0.8;"/>
   </g>
   <g id="patch_5">
    <path d="M 78.5875 548.485875 
L 971.3875 548.485875 
" style="fill:none;stroke:#000000;stroke-linecap:square;stroke-linejoin:miter;stroke-width:0.8;"/>
   </g>
   <g id="patch_6">
    <path d="M 78.5875 113.605875 
L 971.3875 113.605875 
" style="fill:none;stroke:#000000;stroke-linecap:square;stroke-linejoin:miter;stroke-width:0.8;"/>
   </g>
   <g id="legend_1">
    <g id="patch_7">
     <path d="M 68.7955 91.861875 
L 815.992375 91.861875 
Q 819.592375 91.861875 819.592375 88.261875 
L 819.592375 10.8 
Q 819.592375 7.2 815.992375 7.2 
L 68.7955 7.2 
Q 65.1955 7.2 65.1955 10.8 
L 65.1955 88.261875 
Q 65.1955 91.861875 68.7955 91.861875 
z
" style="fill:#ffffff;opacity:0.8;stroke:#cccccc;stroke-linejoin:miter;"/>
    </g>
    <g id="line2d_42">
     <path d="M 72.3955 21.777187 
L 108.3955 21.777187 
" style="fill:none;stroke:#6495ed;stroke-linecap:square;stroke-width:3;"/>
    </g>
    <g id="line2d_43">
     <g>
      <use style="fill:#6495ed;stroke:#6495ed;stroke-linejoin:miter;" x="90.3955" xlink:href="#mc140fa642c" y="21.777187"/>
     </g>
    </g>
    <g id="text_19">
     <!-- Replay 100 (random) -->
     <g transform="translate(122.7955 28.077187)scale(0.18 -0.18)">
      <defs>
       <path d="M 2841 2188 
Q 3044 2119 3236 1894 
Q 3428 1669 3622 1275 
L 4263 0 
L 3584 0 
L 2988 1197 
Q 2756 1666 2539 1819 
Q 2322 1972 1947 1972 
L 1259 1972 
L 1259 0 
L 628 0 
L 628 4666 
L 2053 4666 
Q 2853 4666 3247 4331 
Q 3641 3997 3641 3322 
Q 3641 2881 3436 2590 
Q 3231 2300 2841 2188 
z
M 1259 4147 
L 1259 2491 
L 2053 2491 
Q 2509 2491 2742 2702 
Q 2975 2913 2975 3322 
Q 2975 3731 2742 3939 
Q 2509 4147 2053 4147 
L 1259 4147 
z
" id="DejaVuSans-52" transform="scale(0.015625)"/>
       <path d="M 794 531 
L 1825 531 
L 1825 4091 
L 703 3866 
L 703 4441 
L 1819 4666 
L 2450 4666 
L 2450 531 
L 3481 531 
L 3481 0 
L 794 0 
L 794 531 
z
" id="DejaVuSans-31" transform="scale(0.015625)"/>
       <path d="M 1984 4856 
Q 1566 4138 1362 3434 
Q 1159 2731 1159 2009 
Q 1159 1288 1364 580 
Q 1569 -128 1984 -844 
L 1484 -844 
Q 1016 -109 783 600 
Q 550 1309 550 2009 
Q 550 2706 781 3412 
Q 1013 4119 1484 4856 
L 1984 4856 
z
" id="DejaVuSans-28" transform="scale(0.015625)"/>
       <path d="M 2906 2969 
L 2906 4863 
L 3481 4863 
L 3481 0 
L 2906 0 
L 2906 525 
Q 2725 213 2448 61 
Q 2172 -91 1784 -91 
Q 1150 -91 751 415 
Q 353 922 353 1747 
Q 353 2572 751 3078 
Q 1150 3584 1784 3584 
Q 2172 3584 2448 3432 
Q 2725 3281 2906 2969 
z
M 947 1747 
Q 947 1113 1208 752 
Q 1469 391 1925 391 
Q 2381 391 2643 752 
Q 2906 1113 2906 1747 
Q 2906 2381 2643 2742 
Q 2381 3103 1925 3103 
Q 1469 3103 1208 2742 
Q 947 2381 947 1747 
z
" id="DejaVuSans-64" transform="scale(0.015625)"/>
       <path d="M 513 4856 
L 1013 4856 
Q 1481 4119 1714 3412 
Q 1947 2706 1947 2009 
Q 1947 1309 1714 600 
Q 1481 -109 1013 -844 
L 513 -844 
Q 928 -128 1133 580 
Q 1338 1288 1338 2009 
Q 1338 2731 1133 3434 
Q 928 4138 513 4856 
z
" id="DejaVuSans-29" transform="scale(0.015625)"/>
      </defs>
      <use xlink:href="#DejaVuSans-52"/>
      <use x="64.982422" xlink:href="#DejaVuSans-65"/>
      <use x="126.505859" xlink:href="#DejaVuSans-70"/>
      <use x="189.982422" xlink:href="#DejaVuSans-6c"/>
      <use x="217.765625" xlink:href="#DejaVuSans-61"/>
      <use x="279.044922" xlink:href="#DejaVuSans-79"/>
      <use x="338.224609" xlink:href="#DejaVuSans-20"/>
      <use x="370.011719" xlink:href="#DejaVuSans-31"/>
      <use x="433.634766" xlink:href="#DejaVuSans-30"/>
      <use x="497.257812" xlink:href="#DejaVuSans-30"/>
      <use x="560.880859" xlink:href="#DejaVuSans-20"/>
      <use x="592.667969" xlink:href="#DejaVuSans-28"/>
      <use x="631.681641" xlink:href="#DejaVuSans-72"/>
      <use x="672.794922" xlink:href="#DejaVuSans-61"/>
      <use x="734.074219" xlink:href="#DejaVuSans-6e"/>
      <use x="797.453125" xlink:href="#DejaVuSans-64"/>
      <use x="860.929688" xlink:href="#DejaVuSans-6f"/>
      <use x="922.111328" xlink:href="#DejaVuSans-6d"/>
      <use x="1019.523438" xlink:href="#DejaVuSans-29"/>
     </g>
    </g>
    <g id="line2d_44">
     <path d="M 72.3955 48.197812 
L 108.3955 48.197812 
" style="fill:none;stroke:#800080;stroke-linecap:square;stroke-width:3;"/>
    </g>
    <g id="line2d_45">
     <g>
      <use style="fill:#800080;stroke:#800080;" x="90.3955" xlink:href="#m52f56ac36a" y="48.197812"/>
     </g>
    </g>
    <g id="text_20">
     <!-- Replay 500  (random) -->
     <g transform="translate(122.7955 54.497812)scale(0.18 -0.18)">
      <use xlink:href="#DejaVuSans-52"/>
      <use x="64.982422" xlink:href="#DejaVuSans-65"/>
      <use x="126.505859" xlink:href="#DejaVuSans-70"/>
      <use x="189.982422" xlink:href="#DejaVuSans-6c"/>
      <use x="217.765625" xlink:href="#DejaVuSans-61"/>
      <use x="279.044922" xlink:href="#DejaVuSans-79"/>
      <use x="338.224609" xlink:href="#DejaVuSans-20"/>
      <use x="370.011719" xlink:href="#DejaVuSans-35"/>
      <use x="433.634766" xlink:href="#DejaVuSans-30"/>
      <use x="497.257812" xlink:href="#DejaVuSans-30"/>
      <use x="560.880859" xlink:href="#DejaVuSans-20"/>
      <use x="592.667969" xlink:href="#DejaVuSans-20"/>
      <use x="624.455078" xlink:href="#DejaVuSans-28"/>
      <use x="663.46875" xlink:href="#DejaVuSans-72"/>
      <use x="704.582031" xlink:href="#DejaVuSans-61"/>
      <use x="765.861328" xlink:href="#DejaVuSans-6e"/>
      <use x="829.240234" xlink:href="#DejaVuSans-64"/>
      <use x="892.716797" xlink:href="#DejaVuSans-6f"/>
      <use x="953.898438" xlink:href="#DejaVuSans-6d"/>
      <use x="1051.310547" xlink:href="#DejaVuSans-29"/>
     </g>
    </g>
    <g id="line2d_46">
     <path d="M 72.3955 74.618437 
L 108.3955 74.618437 
" style="fill:none;stroke:#0000ff;stroke-linecap:square;stroke-width:3;"/>
    </g>
    <g id="line2d_47">
     <g>
      <use style="fill:#0000ff;stroke:#0000ff;stroke-linejoin:miter;" x="90.3955" xlink:href="#m3880c56ff4" y="74.618437"/>
     </g>
    </g>
    <g id="text_21">
     <!-- Replay 1K (random) -->
     <g transform="translate(122.7955 80.918437)scale(0.18 -0.18)">
      <defs>
       <path d="M 628 4666 
L 1259 4666 
L 1259 2694 
L 3353 4666 
L 4166 4666 
L 1850 2491 
L 4331 0 
L 3500 0 
L 1259 2247 
L 1259 0 
L 628 0 
L 628 4666 
z
" id="DejaVuSans-4b" transform="scale(0.015625)"/>
      </defs>
      <use xlink:href="#DejaVuSans-52"/>
      <use x="64.982422" xlink:href="#DejaVuSans-65"/>
      <use x="126.505859" xlink:href="#DejaVuSans-70"/>
      <use x="189.982422" xlink:href="#DejaVuSans-6c"/>
      <use x="217.765625" xlink:href="#DejaVuSans-61"/>
      <use x="279.044922" xlink:href="#DejaVuSans-79"/>
      <use x="338.224609" xlink:href="#DejaVuSans-20"/>
      <use x="370.011719" xlink:href="#DejaVuSans-31"/>
      <use x="433.634766" xlink:href="#DejaVuSans-4b"/>
      <use x="499.210938" xlink:href="#DejaVuSans-20"/>
      <use x="530.998047" xlink:href="#DejaVuSans-28"/>
      <use x="570.011719" xlink:href="#DejaVuSans-72"/>
      <use x="611.125" xlink:href="#DejaVuSans-61"/>
      <use x="672.404297" xlink:href="#DejaVuSans-6e"/>
      <use x="735.783203" xlink:href="#DejaVuSans-64"/>
      <use x="799.259766" xlink:href="#DejaVuSans-6f"/>
      <use x="860.441406" xlink:href="#DejaVuSans-6d"/>
      <use x="957.853516" xlink:href="#DejaVuSans-29"/>
     </g>
    </g>
    <g id="line2d_48">
     <path d="M 355.057375 21.777187 
L 391.057375 21.777187 
" style="fill:none;stroke:#ee82ee;stroke-linecap:square;stroke-width:3;"/>
    </g>
    <g id="line2d_49">
     <g>
      <use style="fill:#ee82ee;stroke:#ee82ee;stroke-linejoin:miter;" x="373.057375" xlink:href="#m27f260bbff" y="21.777187"/>
     </g>
    </g>
    <g id="text_22">
     <!-- Replay 100 (first) -->
     <g transform="translate(405.457375 28.077187)scale(0.18 -0.18)">
      <defs>
       <path d="M 2375 4863 
L 2375 4384 
L 1825 4384 
Q 1516 4384 1395 4259 
Q 1275 4134 1275 3809 
L 1275 3500 
L 2222 3500 
L 2222 3053 
L 1275 3053 
L 1275 0 
L 697 0 
L 697 3053 
L 147 3053 
L 147 3500 
L 697 3500 
L 697 3744 
Q 697 4328 969 4595 
Q 1241 4863 1831 4863 
L 2375 4863 
z
" id="DejaVuSans-66" transform="scale(0.015625)"/>
       <path d="M 603 3500 
L 1178 3500 
L 1178 0 
L 603 0 
L 603 3500 
z
M 603 4863 
L 1178 4863 
L 1178 4134 
L 603 4134 
L 603 4863 
z
" id="DejaVuSans-69" transform="scale(0.015625)"/>
      </defs>
      <use xlink:href="#DejaVuSans-52"/>
      <use x="64.982422" xlink:href="#DejaVuSans-65"/>
      <use x="126.505859" xlink:href="#DejaVuSans-70"/>
      <use x="189.982422" xlink:href="#DejaVuSans-6c"/>
      <use x="217.765625" xlink:href="#DejaVuSans-61"/>
      <use x="279.044922" xlink:href="#DejaVuSans-79"/>
      <use x="338.224609" xlink:href="#DejaVuSans-20"/>
      <use x="370.011719" xlink:href="#DejaVuSans-31"/>
      <use x="433.634766" xlink:href="#DejaVuSans-30"/>
      <use x="497.257812" xlink:href="#DejaVuSans-30"/>
      <use x="560.880859" xlink:href="#DejaVuSans-20"/>
      <use x="592.667969" xlink:href="#DejaVuSans-28"/>
      <use x="631.681641" xlink:href="#DejaVuSans-66"/>
      <use x="666.886719" xlink:href="#DejaVuSans-69"/>
      <use x="694.669922" xlink:href="#DejaVuSans-72"/>
      <use x="735.783203" xlink:href="#DejaVuSans-73"/>
      <use x="787.882812" xlink:href="#DejaVuSans-74"/>
      <use x="827.091797" xlink:href="#DejaVuSans-29"/>
     </g>
    </g>
    <g id="line2d_50">
     <path d="M 355.057375 48.197812 
L 391.057375 48.197812 
" style="fill:none;stroke:#ffff00;stroke-linecap:square;stroke-width:3;"/>
    </g>
    <g id="line2d_51">
     <g>
      <use style="fill:#ffff00;stroke:#ffff00;" x="373.057375" xlink:href="#mfd1fbf7c81" y="48.197812"/>
     </g>
    </g>
    <g id="text_23">
     <!-- Replay 500  (first) -->
     <g transform="translate(405.457375 54.497812)scale(0.18 -0.18)">
      <use xlink:href="#DejaVuSans-52"/>
      <use x="64.982422" xlink:href="#DejaVuSans-65"/>
      <use x="126.505859" xlink:href="#DejaVuSans-70"/>
      <use x="189.982422" xlink:href="#DejaVuSans-6c"/>
      <use x="217.765625" xlink:href="#DejaVuSans-61"/>
      <use x="279.044922" xlink:href="#DejaVuSans-79"/>
      <use x="338.224609" xlink:href="#DejaVuSans-20"/>
      <use x="370.011719" xlink:href="#DejaVuSans-35"/>
      <use x="433.634766" xlink:href="#DejaVuSans-30"/>
      <use x="497.257812" xlink:href="#DejaVuSans-30"/>
      <use x="560.880859" xlink:href="#DejaVuSans-20"/>
      <use x="592.667969" xlink:href="#DejaVuSans-20"/>
      <use x="624.455078" xlink:href="#DejaVuSans-28"/>
      <use x="663.46875" xlink:href="#DejaVuSans-66"/>
      <use x="698.673828" xlink:href="#DejaVuSans-69"/>
      <use x="726.457031" xlink:href="#DejaVuSans-72"/>
      <use x="767.570312" xlink:href="#DejaVuSans-73"/>
      <use x="819.669922" xlink:href="#DejaVuSans-74"/>
      <use x="858.878906" xlink:href="#DejaVuSans-29"/>
     </g>
    </g>
    <g id="line2d_52">
     <path d="M 355.057375 74.618437 
L 391.057375 74.618437 
" style="fill:none;stroke:#ff0000;stroke-linecap:square;stroke-width:3;"/>
    </g>
    <g id="line2d_53">
     <g>
      <use style="fill:#ff0000;stroke:#ff0000;stroke-linejoin:miter;" x="373.057375" xlink:href="#mbed6831461" y="74.618437"/>
     </g>
    </g>
    <g id="text_24">
     <!-- Replay 1K (first) -->
     <g transform="translate(405.457375 80.918437)scale(0.18 -0.18)">
      <use xlink:href="#DejaVuSans-52"/>
      <use x="64.982422" xlink:href="#DejaVuSans-65"/>
      <use x="126.505859" xlink:href="#DejaVuSans-70"/>
      <use x="189.982422" xlink:href="#DejaVuSans-6c"/>
      <use x="217.765625" xlink:href="#DejaVuSans-61"/>
      <use x="279.044922" xlink:href="#DejaVuSans-79"/>
      <use x="338.224609" xlink:href="#DejaVuSans-20"/>
      <use x="370.011719" xlink:href="#DejaVuSans-31"/>
      <use x="433.634766" xlink:href="#DejaVuSans-4b"/>
      <use x="499.210938" xlink:href="#DejaVuSans-20"/>
      <use x="530.998047" xlink:href="#DejaVuSans-28"/>
      <use x="570.011719" xlink:href="#DejaVuSans-66"/>
      <use x="605.216797" xlink:href="#DejaVuSans-69"/>
      <use x="633" xlink:href="#DejaVuSans-72"/>
      <use x="674.113281" xlink:href="#DejaVuSans-73"/>
      <use x="726.212891" xlink:href="#DejaVuSans-74"/>
      <use x="765.421875" xlink:href="#DejaVuSans-29"/>
     </g>
    </g>
    <g id="line2d_54">
     <path d="M 603.077688 21.777187 
L 639.077688 21.777187 
" style="fill:none;stroke:#00ff00;stroke-linecap:square;stroke-width:3;"/>
    </g>
    <g id="line2d_55">
     <g>
      <use style="fill:#00ff00;stroke:#00ff00;stroke-linejoin:bevel;" x="621.077688" xlink:href="#m1614db03d5" y="21.777187"/>
     </g>
    </g>
    <g id="text_25">
     <!-- Replay 100 (last) -->
     <g transform="translate(653.477688 28.077187)scale(0.18 -0.18)">
      <use xlink:href="#DejaVuSans-52"/>
      <use x="64.982422" xlink:href="#DejaVuSans-65"/>
      <use x="126.505859" xlink:href="#DejaVuSans-70"/>
      <use x="189.982422" xlink:href="#DejaVuSans-6c"/>
      <use x="217.765625" xlink:href="#DejaVuSans-61"/>
      <use x="279.044922" xlink:href="#DejaVuSans-79"/>
      <use x="338.224609" xlink:href="#DejaVuSans-20"/>
      <use x="370.011719" xlink:href="#DejaVuSans-31"/>
      <use x="433.634766" xlink:href="#DejaVuSans-30"/>
      <use x="497.257812" xlink:href="#DejaVuSans-30"/>
      <use x="560.880859" xlink:href="#DejaVuSans-20"/>
      <use x="592.667969" xlink:href="#DejaVuSans-28"/>
      <use x="631.681641" xlink:href="#DejaVuSans-6c"/>
      <use x="659.464844" xlink:href="#DejaVuSans-61"/>
      <use x="720.744141" xlink:href="#DejaVuSans-73"/>
      <use x="772.84375" xlink:href="#DejaVuSans-74"/>
      <use x="812.052734" xlink:href="#DejaVuSans-29"/>
     </g>
    </g>
    <g id="line2d_56">
     <path d="M 603.077688 48.197812 
L 639.077688 48.197812 
" style="fill:none;stroke:#000000;stroke-linecap:square;stroke-width:3;"/>
    </g>
    <g id="line2d_57">
     <g>
      <use style="stroke:#000000;" x="621.077688" xlink:href="#me410d85e15" y="48.197812"/>
     </g>
    </g>
    <g id="text_26">
     <!-- Replay 500  (last) -->
     <g transform="translate(653.477688 54.497812)scale(0.18 -0.18)">
      <use xlink:href="#DejaVuSans-52"/>
      <use x="64.982422" xlink:href="#DejaVuSans-65"/>
      <use x="126.505859" xlink:href="#DejaVuSans-70"/>
      <use x="189.982422" xlink:href="#DejaVuSans-6c"/>
      <use x="217.765625" xlink:href="#DejaVuSans-61"/>
      <use x="279.044922" xlink:href="#DejaVuSans-79"/>
      <use x="338.224609" xlink:href="#DejaVuSans-20"/>
      <use x="370.011719" xlink:href="#DejaVuSans-35"/>
      <use x="433.634766" xlink:href="#DejaVuSans-30"/>
      <use x="497.257812" xlink:href="#DejaVuSans-30"/>
      <use x="560.880859" xlink:href="#DejaVuSans-20"/>
      <use x="592.667969" xlink:href="#DejaVuSans-20"/>
      <use x="624.455078" xlink:href="#DejaVuSans-28"/>
      <use x="663.46875" xlink:href="#DejaVuSans-6c"/>
      <use x="691.251953" xlink:href="#DejaVuSans-61"/>
      <use x="752.53125" xlink:href="#DejaVuSans-73"/>
      <use x="804.630859" xlink:href="#DejaVuSans-74"/>
      <use x="843.839844" xlink:href="#DejaVuSans-29"/>
     </g>
    </g>
    <g id="line2d_58">
     <path d="M 603.077688 74.618437 
L 639.077688 74.618437 
" style="fill:none;stroke:#008000;stroke-linecap:square;stroke-width:3;"/>
    </g>
    <g id="line2d_59">
     <g>
      <use style="fill:#008000;stroke:#008000;stroke-linejoin:miter;" x="621.077688" xlink:href="#m7a024ea638" y="74.618437"/>
     </g>
    </g>
    <g id="text_27">
     <!-- Replay 1K (last) -->
     <g transform="translate(653.477688 80.918437)scale(0.18 -0.18)">
      <use xlink:href="#DejaVuSans-52"/>
      <use x="64.982422" xlink:href="#DejaVuSans-65"/>
      <use x="126.505859" xlink:href="#DejaVuSans-70"/>
      <use x="189.982422" xlink:href="#DejaVuSans-6c"/>
      <use x="217.765625" xlink:href="#DejaVuSans-61"/>
      <use x="279.044922" xlink:href="#DejaVuSans-79"/>
      <use x="338.224609" xlink:href="#DejaVuSans-20"/>
      <use x="370.011719" xlink:href="#DejaVuSans-31"/>
      <use x="433.634766" xlink:href="#DejaVuSans-4b"/>
      <use x="499.210938" xlink:href="#DejaVuSans-20"/>
      <use x="530.998047" xlink:href="#DejaVuSans-28"/>
      <use x="570.011719" xlink:href="#DejaVuSans-6c"/>
      <use x="597.794922" xlink:href="#DejaVuSans-61"/>
      <use x="659.074219" xlink:href="#DejaVuSans-73"/>
      <use x="711.173828" xlink:href="#DejaVuSans-74"/>
      <use x="750.382812" xlink:href="#DejaVuSans-29"/>
     </g>
    </g>
   </g>
  </g>
 </g>
 <defs>
  <clipPath id="pf87bfaaf97">
   <rect height="434.88" width="892.8" x="78.5875" y="113.605875"/>
  </clipPath>
 </defs>
</svg>
